<?xml version="1.0" encoding="UTF-8"?>
<svg id="b" data-name="Слой 2" xmlns="http://www.w3.org/2000/svg" width="67mm" height="52.95mm" viewBox="0 0 189.92 150.1">
  <g id="c" data-name="Слой 1">
    <g>
      <path d="M58.24,146.49l3.68-10.48h3.62v.55c-.55,0-.98,.06-1.16,.25s-.37,.37-.43,.74c-.06,.31-.06,.86-.06,1.72v8.46c0,.43,.06,.74,.12,.98,.12,.25,.25,.37,.49,.49,.25,.06,.55,.12,1.04,.18v.55h-5.39v-.55c.55,0,.92-.06,1.16-.25,.25-.12,.37-.37,.43-.61s.06-.67,.06-1.23v-9.44l-4.17,12.01h-.49l-4.11-11.7v8.03c0,.92,.12,1.59,.43,2.08,.31,.49,.8,.86,1.47,1.04v.55h-4.23v-.55c.61-.06,1.04-.37,1.41-.8,.31-.49,.49-1.16,.49-1.96v-9.07c-.25-.31-.49-.49-.8-.67-.31-.12-.67-.18-1.04-.18v-.55h3.8l3.68,10.42h0Zm4.35,1.1v-9.44c0-.8,.06-1.29,.12-1.59-.25,0-.37,.12-.49,.25-.12,.12-.18,.31-.18,.55s-.06,.61-.06,1.1v9.44c0,.49-.06,.8-.12,.98s-.25,.37-.49,.49h.31c.37,0,.61-.12,.74-.37,.12-.31,.18-.74,.18-1.41Zm-10.3-11.03h-.31c.37,.18,.61,.37,.8,.67s.43,.74,.61,1.29l3.86,10.79c.12-.25,.18-.49,.18-.67s-.06-.43-.18-.8l-3.31-9.44c-.18-.61-.43-1.1-.67-1.35-.25-.31-.55-.49-.98-.49Zm-.67,12.75h1.78c-.18-.12-.37-.31-.49-.49-.12-.25-.25-.49-.31-.8-.06,.25-.18,.49-.37,.74-.12,.18-.37,.37-.61,.55Z" style="fill: #cb9b52;"/>
      <path d="M74.78,135.89h.67v4.35h-.49c-.25-.61-.55-1.23-.86-1.72s-.61-.92-.98-1.23-.67-.55-1.04-.74-.8-.25-1.23-.25c-.55,0-1.1,.12-1.59,.43-.49,.31-.86,.74-1.23,1.29s-.61,1.23-.8,2.08c-.18,.8-.31,1.65-.31,2.57,0,1.29,.18,2.45,.55,3.43s.86,1.78,1.53,2.33c.67,.55,1.41,.86,2.27,.86,.49,0,1.04-.12,1.53-.31s.92-.49,1.41-.92c.43-.43,.86-.92,1.23-1.53l.49,.31c-.61,1.04-1.41,1.84-2.27,2.39-.86,.55-1.9,.8-3.06,.8-.92,0-1.72-.18-2.45-.55-.74-.37-1.41-.86-1.96-1.53-.55-.67-.98-1.41-1.29-2.27s-.43-1.78-.43-2.76c0-1.04,.18-2.02,.49-2.94s.74-1.65,1.35-2.33c.55-.67,1.23-1.16,1.96-1.47,.74-.37,1.53-.55,2.33-.55,.31,0,.61,0,.86,.06s.61,.12,.98,.25,.61,.18,.74,.25c.12,.06,.31,.06,.43,.06,.49,.12,.86-.06,1.16-.37h0Zm-.31,2.45l-.06-1.65c-.25,.12-.55,.18-.86,.18-.12,0-.25,0-.37-.06,.31,.25,.55,.49,.74,.74,.18,.25,.37,.49,.55,.8Zm-5.58-2.08c-.86,.37-1.59,.86-2.14,1.41-.31,.31-.61,.67-.86,1.04-.25,.37-.43,.8-.61,1.23s-.31,.92-.37,1.41-.12,1.04-.12,1.53c0,1.16,.18,2.27,.61,3.25s1.04,1.84,1.84,2.45c.8,.67,1.78,1.04,2.94,1.23-.74-.25-1.41-.55-2.02-.98-.61-.43-1.1-.98-1.53-1.59s-.74-1.29-.98-2.02c-.18-.74-.31-1.47-.31-2.27,0-.67,.06-1.35,.31-2.08,.18-.74,.43-1.35,.8-1.9,.37-.61,.74-1.16,1.16-1.53,.31-.37,.8-.74,1.29-1.16h0Z" style="fill: #cb9b52;"/>
      <path d="M82.56,146.49l3.68-10.48h3.62v.55c-.55,0-.98,.06-1.16,.25-.25,.18-.37,.37-.43,.74-.06,.31-.06,.86-.06,1.72v8.46c0,.43,.06,.74,.12,.98,.12,.25,.25,.37,.49,.49,.25,.06,.55,.12,1.04,.18v.55h-5.39v-.55c.55,0,.92-.06,1.16-.25,.25-.12,.37-.37,.43-.61,.06-.25,.06-.67,.06-1.23v-9.44l-4.17,12.07h-.49l-4.11-11.7v7.97c0,.92,.12,1.59,.43,2.08,.31,.49,.8,.86,1.47,1.04v.55h-4.23v-.55c.61-.06,1.04-.37,1.41-.8,.31-.49,.49-1.16,.49-1.96v-9.07c-.25-.31-.49-.49-.8-.67-.31-.12-.67-.18-1.04-.18v-.55h3.8l3.68,10.42h0Zm4.29,1.1v-9.44c0-.8,.06-1.29,.12-1.59-.25,0-.37,.12-.49,.25s-.18,.31-.18,.55-.06,.61-.06,1.1v9.44c0,.49-.06,.8-.12,.98-.06,.18-.25,.37-.49,.49h.31c.37,0,.61-.12,.74-.37,.18-.31,.18-.74,.18-1.41h0Zm-10.23-11.03h-.31c.37,.18,.61,.37,.8,.67s.43,.74,.61,1.29l3.86,10.79c.12-.25,.18-.49,.18-.67s-.06-.43-.18-.8l-3.31-9.44c-.18-.61-.43-1.1-.67-1.35-.25-.31-.55-.49-.98-.49Zm-.67,12.75h1.78c-.18-.12-.37-.31-.49-.49-.12-.25-.25-.49-.31-.8-.06,.25-.18,.49-.37,.74-.12,.18-.37,.37-.61,.55Z" style="fill: #cb9b52;"/>
      <path d="M96.84,136.01h4.66v.55c-.55,.06-1.1,.31-1.65,.8s-1.16,1.23-1.9,2.21l-1.84,2.57,3,4.6c.49,.8,.86,1.29,1.04,1.53s.43,.49,.74,.74,.67,.31,1.1,.31v.55h-6.07v-.55h.18c.43,0,.74-.06,.92-.25,.18-.18,.31-.37,.31-.55,0-.25-.06-.55-.25-.86-.18-.31-.43-.67-.74-1.16l-1.59-2.51-1.59,2.21c-.31,.43-.55,.8-.67,1.1-.12,.31-.18,.55-.18,.86,0,.37,.12,.61,.37,.8,.25,.18,.55,.31,.98,.31v.55h-4.66v-.55h.12c.25,0,.55-.12,.92-.31s.8-.55,1.23-1.04c.49-.49,.92-1.04,1.41-1.72l1.9-2.64-3.06-4.72c-.43-.67-.8-1.16-.98-1.47-.25-.31-.43-.49-.67-.61-.25-.12-.55-.18-.86-.18v-.55h5.76v.55h-.61c-.25,0-.43,.06-.61,.18s-.25,.25-.25,.49c0,.18,.06,.31,.12,.49,.06,.18,.18,.37,.37,.67l2.14,3.31,1.53-2.21c.55-.74,.8-1.35,.8-1.84,0-.31-.12-.55-.37-.74-.25-.18-.55-.31-.98-.37l-.06-.55h0Zm2.94,.55h-1.78c.37,.25,.49,.61,.49,1.04v.31c.31-.55,.74-1.04,1.29-1.35h0Zm-2.64,9.56l-5.39-8.27c-.25-.37-.43-.67-.61-.8-.12-.12-.31-.25-.49-.37-.18-.06-.43-.12-.8-.12,.18,.06,.43,.25,.67,.55,.25,.25,.49,.67,.86,1.16l5.64,8.76c.37,.61,.61,1.1,.61,1.47,0,.25-.12,.55-.43,.8,.31,0,.61-.06,.74-.25,.18-.18,.25-.37,.25-.61,0-.31-.06-.61-.25-.98-.12-.31-.43-.8-.8-1.35h0Zm-7.05,3.19h2.02c-.31-.18-.49-.49-.49-.92,0-.18,.06-.43,.12-.67-.25,.25-.37,.49-.49,.55-.12,.12-.25,.25-.49,.43-.12,.25-.37,.43-.67,.61Z" style="fill: #cb9b52;"/>
      <path d="M110.82,135.89h.67v4.35h-.49c-.25-.61-.55-1.23-.86-1.72s-.61-.92-.98-1.23-.67-.55-1.04-.74c-.37-.18-.8-.25-1.23-.25-.55,0-1.1,.12-1.59,.43s-.86,.74-1.23,1.29c-.31,.55-.61,1.23-.8,2.08-.18,.8-.31,1.65-.31,2.57,0,1.29,.18,2.45,.55,3.43,.37,.98,.86,1.78,1.53,2.33,.67,.55,1.41,.86,2.27,.86,.49,0,1.04-.12,1.53-.31s.92-.49,1.41-.92c.43-.43,.86-.92,1.23-1.53l.49,.31c-.61,1.04-1.41,1.84-2.27,2.39s-1.9,.8-3.06,.8c-.92,0-1.72-.18-2.45-.55-.74-.37-1.41-.86-1.96-1.53s-.98-1.41-1.29-2.27-.43-1.78-.43-2.76c0-1.04,.18-2.02,.49-2.94s.74-1.65,1.35-2.33c.55-.67,1.23-1.16,1.96-1.47,.74-.37,1.53-.55,2.33-.55,.31,0,.61,0,.86,.06s.61,.12,.98,.25,.61,.18,.74,.25c.12,.06,.31,.06,.43,.06,.55,.12,.92-.06,1.16-.37h0Zm-.31,2.45l-.06-1.65c-.25,.12-.55,.18-.86,.18-.12,0-.25,0-.37-.06,.31,.25,.55,.49,.74,.74,.18,.25,.37,.49,.55,.8Zm-5.52-2.08c-.86,.37-1.59,.86-2.14,1.41-.31,.31-.61,.67-.86,1.04-.25,.37-.43,.8-.61,1.23s-.31,.92-.37,1.41-.12,1.04-.12,1.53c0,1.16,.18,2.27,.61,3.25s1.04,1.84,1.84,2.45c.8,.67,1.78,1.04,2.94,1.23-.74-.25-1.41-.55-2.02-.98-.61-.43-1.1-.98-1.53-1.59s-.74-1.29-.98-2.02c-.18-.74-.31-1.47-.31-2.27,0-.67,.06-1.35,.31-2.08,.18-.74,.43-1.35,.8-1.9,.37-.61,.74-1.16,1.16-1.53,.31-.37,.74-.74,1.29-1.16h0Z" style="fill: #cb9b52;"/>
      <path d="M119.76,136.01h3.86v.55c-.43,0-.86,.31-1.23,.86s-.74,1.41-1.1,2.51l-3.49,10.17h-.49l-4.29-11.89c-.25-.74-.43-1.16-.61-1.35s-.49-.25-.98-.31v-.55h5.03v.55h-.12c-.37,0-.67,.06-.86,.25s-.31,.37-.31,.67c0,0,0,.06,.06,.31s.06,.43,.12,.55l3.06,8.52,2.21-6.43c.31-.92,.49-1.59,.49-2.21,0-.55-.12-.92-.37-1.23-.25-.31-.55-.43-.98-.43v-.55h0Zm2.51,.55h-1.65c.43,.31,.67,.8,.74,1.53,.25-.67,.55-1.16,.92-1.53h0Zm-8.95,1.53l4.11,11.52c.18-.37,.25-.61,.25-.74,0-.18-.06-.43-.25-.86l-3.49-9.87c-.12-.43-.31-.74-.37-.98-.12-.25-.25-.37-.43-.49s-.43-.18-.74-.18c.18,.12,.37,.25,.49,.49,.12,.18,.25,.55,.43,1.1h0Z" style="fill: #cb9b52;"/>
      <path d="M123.56,136.01h5.58v.55c-.55,0-.92,.12-1.23,.25s-.43,.43-.49,.86c0,.25,0,.49-.06,.67,0,.18,0,.25,0,.18v9.01c0,.37,.06,.67,.12,.92,.06,.25,.18,.37,.31,.49s.25,.18,.43,.18c.18,.06,.49,.06,.86,.12v.55h-5.58v-.55c.49,0,.86-.06,1.1-.18,.25-.12,.43-.31,.49-.55s.12-.67,.12-1.23v-8.76c0-.55,0-.92-.06-1.16s-.12-.43-.25-.55-.31-.18-.49-.25c-.18-.06-.49-.06-.98-.12l.12-.43h0Zm1.96,2.33v9.74c0,.31-.06,.55-.12,.74-.12,.18-.25,.31-.49,.49,.37,0,.67-.06,.86-.18,.25-.12,.31-.43,.31-.86v-10.42c0-.43-.06-.8-.25-.98-.18-.25-.49-.31-.92-.31,.43,.25,.61,.74,.61,1.47v.12c.06,.12,0,.18,0,.18h0Z" style="fill: #cb9b52;"/>
      <path d="M129.08,136.01h5.58v.55c-.55,0-.92,.12-1.23,.25s-.43,.43-.49,.86c0,.25,0,.49-.06,.67,0,.18,0,.25,0,.18v9.01c0,.37,.06,.67,.12,.92,.06,.25,.18,.37,.31,.49s.25,.18,.43,.18c.18,.06,.49,.06,.86,.12v.55h-5.58v-.55c.49,0,.86-.06,1.1-.18,.25-.12,.43-.31,.49-.55s.12-.67,.12-1.23v-8.76c0-.55,0-.92-.06-1.16s-.12-.43-.25-.55-.31-.18-.49-.25c-.18-.06-.49-.06-.98-.12v-.43h.12Zm2.02,2.33v9.74c0,.31-.06,.55-.12,.74-.12,.18-.25,.31-.49,.49,.37,0,.67-.06,.86-.18,.25-.12,.31-.43,.31-.86v-10.42c0-.43-.06-.8-.25-.98-.18-.25-.49-.31-.92-.31,.43,.25,.61,.74,.61,1.47v.31h0Z" style="fill: #cb9b52;"/>
      <path d="M134.53,136.01h5.58v.55c-.55,0-.92,.12-1.23,.25s-.43,.43-.49,.86c0,.25,0,.49-.06,.67,0,.18,0,.25,0,.18v9.01c0,.37,.06,.67,.12,.92,.06,.25,.18,.37,.31,.49s.25,.18,.43,.18c.18,.06,.49,.06,.86,.12v.55h-5.58v-.55c.49,0,.86-.06,1.1-.18,.25-.12,.43-.31,.49-.55s.12-.67,.12-1.23v-8.76c0-.55,0-.92-.06-1.16s-.12-.43-.25-.55-.31-.18-.49-.25c-.18-.06-.49-.06-.98-.12v-.43h.12Zm2.02,2.33v9.74c0,.31-.06,.55-.12,.74-.12,.18-.25,.31-.49,.49,.37,0,.67-.06,.86-.18,.25-.12,.31-.43,.31-.86v-10.42c0-.43-.06-.8-.25-.98-.18-.25-.49-.31-.92-.31,.43,.25,.61,.74,.61,1.47v.31h0Z" style="fill: #cb9b52;"/>
      <g>
        <g>
          <path d="M49.78,124.63v-.2c.32,0,.47-.24,.47-.71v-2.42l-1.41,2.42c0,.46,.16,.7,.48,.71v.2h-2.51v-.2c.2,0,.34-.06,.43-.17s.13-.31,.13-.59v-3.04c0-.49-.18-.74-.55-.74v-.2h2.51v.2c-.18,0-.31,.06-.38,.16s-.1,.29-.1,.58v2.41l1.41-2.45c0-.26-.04-.44-.12-.54-.07-.1-.19-.15-.36-.15v-.2h2.51v.2c-.19,0-.33,.05-.42,.14s-.14,.27-.14,.53v3.14c0,.29,.04,.49,.12,.59,.08,.1,.23,.15,.44,.15v.2h-2.51Z" style="fill: #cb9b52;"/>
          <path d="M53.05,119.69h2.06l1.25,3.06,1.25-3.06h2.01v.2c-.19,.01-.33,.07-.41,.17-.08,.1-.12,.29-.12,.56v3.07c0,.28,.04,.47,.11,.58,.07,.11,.21,.16,.42,.17v.2h-2.6v-.2c.22,0,.37-.06,.46-.17s.13-.3,.13-.58v-3.16l-1.72,4.1h-.27l-1.67-4.05v3.19c0,.23,.04,.39,.12,.5,.08,.1,.23,.16,.45,.17v.2h-1.48v-.2c.2,0,.34-.06,.42-.17,.08-.1,.12-.28,.12-.54v-3.15c0-.24-.04-.42-.12-.52-.08-.1-.22-.16-.42-.17v-.2Z" style="fill: #cb9b52;"/>
          <path d="M61.37,123c.25,0,.45,.09,.63,.26,.17,.17,.25,.38,.25,.62s-.09,.45-.26,.62c-.17,.17-.38,.26-.62,.26s-.45-.09-.62-.26c-.17-.17-.26-.38-.26-.62s.09-.45,.26-.62c.17-.17,.38-.26,.62-.26Z" style="fill: #cb9b52;"/>
          <path d="M69.92,122.59h-2.53l-.3,.7c-.1,.23-.15,.42-.15,.58,0,.2,.08,.35,.24,.44,.09,.06,.33,.1,.7,.13v.2h-2.38v-.2c.26-.04,.47-.15,.63-.32,.16-.17,.37-.53,.61-1.08l2.56-5.71h.1l2.58,5.87c.25,.56,.45,.91,.61,1.05,.12,.11,.29,.17,.51,.19v.2h-3.46v-.2h.14c.28,0,.47-.04,.59-.12,.08-.06,.12-.14,.12-.24,0-.06,0-.13-.03-.2,0-.03-.06-.16-.16-.4l-.38-.89Zm-.18-.39l-1.07-2.46-1.1,2.46h2.16Z" style="fill: #cb9b52;"/>
          <path d="M74.58,123c.25,0,.45,.09,.63,.26,.17,.17,.25,.38,.25,.62s-.09,.45-.26,.62c-.17,.17-.38,.26-.62,.26s-.45-.09-.62-.26c-.17-.17-.26-.38-.26-.62s.09-.45,.26-.62c.17-.17,.38-.26,.62-.26Z" style="fill: #cb9b52;"/>
          <path d="M80.42,122.59h-2.53l-.3,.7c-.1,.23-.15,.42-.15,.58,0,.2,.08,.35,.24,.44,.09,.06,.33,.1,.7,.13v.2h-2.38v-.2c.26-.04,.47-.15,.63-.32,.16-.17,.37-.53,.61-1.08l2.56-5.71h.1l2.58,5.87c.25,.56,.45,.91,.61,1.05,.12,.11,.29,.17,.51,.19v.2h-3.46v-.2h.14c.28,0,.47-.04,.59-.12,.08-.06,.12-.14,.12-.24,0-.06,0-.13-.03-.2,0-.03-.06-.16-.16-.4l-.38-.89Zm-.18-.39l-1.07-2.46-1.1,2.46h2.16Z" style="fill: #cb9b52;"/>
          <path d="M85.08,123c.25,0,.45,.09,.63,.26,.17,.17,.25,.38,.25,.62s-.09,.45-.26,.62c-.17,.17-.38,.26-.62,.26s-.45-.09-.62-.26c-.17-.17-.26-.38-.26-.62s.09-.45,.26-.62c.17-.17,.38-.26,.62-.26Z" style="fill: #cb9b52;"/>
          <path d="M96.87,117.67c-.39,0-.64,.06-.75,.19-.11,.12-.17,.35-.17,.69v4.97c0,.38,.06,.63,.17,.74,.11,.11,.37,.17,.77,.18v.2h-3.61v-.2c.29,0,.49-.02,.61-.07s.2-.13,.25-.24c.05-.11,.08-.3,.08-.58v-5.61h-1.72v2.14c0,.89-.02,1.57-.07,2.04-.04,.47-.16,.91-.36,1.33s-.45,.74-.77,.95c-.31,.21-.66,.32-1.04,.32-.34,0-.61-.09-.8-.27-.19-.18-.28-.41-.28-.67,0-.22,.06-.4,.17-.55,.12-.14,.28-.21,.5-.21,.4,0,.63,.25,.67,.75,.02,.23,.11,.34,.26,.34,.22,0,.46-.15,.71-.45,.25-.3,.42-.71,.5-1.23,.08-.52,.12-1.27,.12-2.26v-1.35c0-.38-.02-.64-.07-.77-.05-.13-.14-.22-.28-.28-.13-.06-.38-.09-.72-.1v-.2h5.82v.2Z" style="fill: #cb9b52;"/>
          <path d="M100.12,117.88v2.91h.14c.45,0,.78-.14,.99-.43,.2-.28,.33-.71,.39-1.26h.2v3.75h-.2c-.04-.41-.13-.74-.27-1s-.29-.44-.47-.52c-.18-.09-.44-.13-.78-.13v2.02c0,.39,.02,.63,.05,.72,.03,.09,.09,.16,.19,.22,.09,.06,.24,.08,.44,.08h.43c.67,0,1.2-.15,1.61-.46,.4-.31,.69-.78,.87-1.41h.2l-.32,2.27h-6.18v-.2h.24c.21,0,.37-.04,.5-.11,.09-.05,.16-.13,.21-.25,.04-.08,.06-.31,.06-.66v-4.71c0-.32,0-.52-.03-.6-.03-.12-.1-.22-.19-.28-.13-.1-.32-.15-.55-.15h-.24v-.2h5.99v2.12h-.2c-.1-.52-.25-.89-.43-1.11s-.45-.39-.78-.5c-.2-.06-.57-.09-1.11-.09h-.74Z" style="fill: #cb9b52;"/>
          <path d="M108.56,117.37c1.14-.04,2.07,.29,2.78,1,.71,.71,1.07,1.59,1.07,2.65,0,.91-.27,1.71-.8,2.4-.7,.91-1.7,1.37-2.98,1.37s-2.28-.44-2.99-1.31c-.56-.69-.83-1.51-.83-2.45,0-1.06,.36-1.95,1.08-2.66,.72-.71,1.61-1.04,2.67-1Zm.06,.34c-.65,0-1.15,.33-1.49,1-.28,.55-.42,1.34-.42,2.36,0,1.22,.21,2.12,.64,2.71,.3,.41,.72,.61,1.26,.61,.36,0,.66-.09,.91-.26,.31-.23,.55-.58,.72-1.08,.17-.49,.26-1.14,.26-1.93,0-.95-.09-1.65-.26-2.12-.18-.47-.4-.8-.67-.99-.27-.19-.59-.29-.94-.29Z" style="fill: #cb9b52;"/>
          <path d="M115.74,121.19v2.22c0,.37,.02,.59,.06,.69,.04,.09,.12,.17,.24,.24,.12,.07,.28,.1,.48,.1h.24v.2h-3.74v-.2h.24c.21,0,.38-.04,.5-.11,.09-.05,.16-.13,.21-.25,.04-.08,.06-.31,.06-.66v-4.71c0-.37-.02-.59-.06-.69-.04-.09-.12-.17-.23-.24-.12-.07-.28-.1-.48-.1h-.24v-.2h3.74v.2h-.24c-.21,0-.37,.04-.5,.11-.09,.05-.16,.13-.22,.25-.04,.08-.06,.31-.06,.67v2.03h2.53v-2.03c0-.37-.02-.59-.06-.69-.04-.09-.12-.17-.24-.24-.12-.07-.28-.1-.48-.1h-.23v-.2h3.74v.2h-.23c-.21,0-.38,.04-.5,.11-.09,.05-.16,.13-.22,.25-.04,.08-.06,.31-.06,.67v4.71c0,.37,.02,.59,.06,.69,.04,.09,.12,.17,.24,.24,.12,.07,.28,.1,.48,.1h.23v.2h-3.74v-.2h.23c.21,0,.38-.04,.5-.11,.09-.05,.16-.13,.22-.25,.04-.08,.06-.31,.06-.66v-2.22h-2.53Z" style="fill: #cb9b52;"/>
          <path d="M125.37,117.37c1.14-.04,2.07,.29,2.78,1,.71,.71,1.07,1.59,1.07,2.65,0,.91-.27,1.71-.8,2.4-.7,.91-1.7,1.37-2.98,1.37s-2.28-.44-2.99-1.31c-.56-.69-.83-1.51-.83-2.45,0-1.06,.36-1.95,1.08-2.66,.72-.71,1.61-1.04,2.67-1Zm.06,.34c-.65,0-1.15,.33-1.49,1-.28,.55-.42,1.34-.42,2.36,0,1.22,.21,2.12,.64,2.71,.3,.41,.72,.61,1.26,.61,.36,0,.66-.09,.91-.26,.31-.23,.55-.58,.72-1.08,.17-.49,.26-1.14,.26-1.93,0-.95-.09-1.65-.26-2.12-.18-.47-.4-.8-.67-.99-.27-.19-.59-.29-.94-.29Z" style="fill: #cb9b52;"/>
          <path d="M134.41,120.83c.68,.16,1.16,.35,1.43,.58,.39,.32,.59,.74,.59,1.25,0,.54-.22,.98-.65,1.33-.53,.43-1.3,.64-2.32,.64h-3.63v-.2c.33,0,.55-.03,.67-.09,.12-.06,.2-.14,.25-.24,.05-.1,.07-.34,.07-.73v-4.64c0-.39-.02-.63-.07-.73-.05-.1-.13-.18-.25-.24-.12-.06-.34-.09-.67-.09v-.2h3.43c.82,0,1.4,.07,1.74,.22s.61,.36,.81,.65c.2,.29,.29,.6,.29,.93,0,.34-.12,.65-.37,.92s-.69,.48-1.32,.64Zm-1.92,.27v2.56c0,.19,.04,.33,.14,.43s.24,.14,.43,.14c.28,0,.54-.06,.78-.19,.24-.12,.42-.31,.55-.54s.19-.5,.19-.79c0-.33-.08-.63-.23-.9-.16-.27-.37-.45-.64-.56-.27-.11-.68-.16-1.21-.15Zm0-.41c.5,0,.87-.06,1.1-.17,.24-.11,.42-.27,.55-.47s.19-.46,.19-.78-.06-.58-.19-.78c-.12-.2-.3-.36-.54-.46-.23-.11-.6-.16-1.12-.15v2.82Z" style="fill: #cb9b52;"/>
          <path d="M140.62,122.59h-2.53l-.3,.7c-.1,.23-.15,.42-.15,.58,0,.2,.08,.35,.24,.44,.09,.06,.33,.1,.7,.13v.2h-2.38v-.2c.26-.04,.47-.15,.63-.32,.16-.17,.37-.53,.61-1.08l2.56-5.71h.1l2.58,5.87c.25,.56,.45,.91,.61,1.05,.12,.11,.29,.17,.51,.19v.2h-3.46v-.2h.14c.28,0,.47-.04,.59-.12,.08-.06,.12-.14,.12-.24,0-.06,0-.13-.03-.2,0-.03-.06-.16-.16-.4l-.38-.89Zm-.18-.39l-1.07-2.46-1.1,2.46h2.16Z" style="fill: #cb9b52;"/>
        </g>
        <g>
          <g>
            <path d="M152.6,134.34c1.59-1.15,4.73-2.16,7.19-.41,.14,.1,2.54,1.77,2.27,4.29-.2,1.9-1.51,3.1-2.76,4.17-1.8,1.53-3.72,2.13-4.9,2.39,.21-.19,.54-.48,.98-.8,1.26-.9,2.01-1.03,3.06-1.73,.44-.3,1.06-.77,1.7-1.53,.17-.2,1.32-1.51,1.06-3.35-.22-1.52-1.26-2.38-1.59-2.65-1.58-1.27-3.71-1.18-5.1-.53-.32,.15-1.6,.76-1.74,1.79-.02,.14-.07,.55,.16,.89,.33,.48,.92,.35,1.03,.67,.14,.38-.48,1.08-1.23,1.29-.67,.18-1.29-.18-1.65-.74-.03-.05-.32-.42-.37-.91-.15-1.37,1.56-2.61,1.89-2.84Z" style="fill: #cb9b52;"/>
            <path d="M167.01,139.62c2.02-.06,3.74,.92,5.39,1.96,3.75,2.36,4.82,1.55,5.27,1.29,.99-.57,1.69-2.19,1.04-3.43-.46-.88-1.56-1.5-2.68-1.26-1.35,.29-1.83,1.63-1.85,1.69-.02-.21-.03-.67,.21-1.15,0,0,.3-.57,.99-.91,1.11-.55,3.68-.13,4.38,1.75,.35,.94,.16,2.06-.44,2.85-.91,1.18-2.41,1.19-2.98,1.2-.35,0-1.13-.03-3.63-1.29-2.54-1.28-2.59-1.68-3.94-2.03-1.59-.41-2.95-.22-3.6-.12-1.34,.2-2.39,.64-3.06,.98,.31-.23,.74-.52,1.3-.78,.16-.07,1.72-.7,3.6-.75Z" style="fill: #cb9b52;"/>
            <path d="M142.07,142.99c.07,.17,.18,.44,.37,.74,1.59,2.59,5.25,2.97,6.39,3.08,.42,.04,1.7,.15,3.48-.12,2.68-.41,3.65-1.25,8.07-3.12,3.13-1.33,4.51-1.7,6.09-1.81,1.13-.08,3.52-.26,4.17,.98,.42,.81-.1,1.81-.17,1.95-.71,1.37-2.35,1.47-2.53,1.48-.76,.03-2.03-.25-2.57-1.23-.31-.55-.31-1.35,.25-1.72,.43-.31,2.33-.61,2.45,.12,.12,.61-1.41,.8-1.72,.74-.06,1.16,3.19,.12,1.96-1.23-.92-1.04-3.19-.37-3.68,.8-.11-.04-.3-.08-.53-.04-.44,.09-.67,.48-.75,.61-.41,.68-.17,1.75,.33,2.45,.76,1.08,2.1,1.25,2.87,1.35,.21,.03,1.24,.15,2.49-.24,.47-.15,1.13-.4,1.84-.95,.99-.76,1.56-1.79,1.5-2.84-.05-.94-.6-1.61-.83-1.88-1.74-2.04-5.4-2.06-7.97-1.16-.2,.07-.62,.26-1.45,.65-3.52,1.63-4.17,2.32-6.63,3.29-1.45,.57-2.49,.82-2.96,.93-1.08,.24-2,.45-3.18,.4-1.59-.07-2.76-.56-3.67-.95-.92-.39-2.25-1.08-3.62-2.29Zm28.31,2.82c.86-.74,1.16-1.67,1.26-2.08,.06,.19,.12,.5,.07,.85-.08,.66-.46,1.09-.7,1.36-1,1.11-2.49,1.4-2.74,1.44-.36,.06-3,.54-4.08-.96-.57-.79-.69-2.1-.21-2.42,.16-.1,.36-.09,.57-.04,0,.21,.04,.5,.17,.83,.41,1.11,1.44,1.59,1.64,1.68,1.32,.62,2.96,.25,4.02-.66Z" style="fill: #cb9b52;"/>
            <path d="M142.09,141.61c-.07-.26-.07-.48-.06-.63,.09-.04,.23-.08,.4-.07,.58,.04,.8,.66,1.29,1.04,.68,.53,1.7,.46,2.33,.25,1-.35,1.97-1.41,1.79-2.4-.09-.46-.39-.75-.5-.85-.66-.62-1.65-.55-2.27-.31-.67,.26-1.47,.93-1.32,1.42,.14,.45,1.09,.72,1.57,.4,.02-.01,.27-.19,.24-.37-.04-.26-.63-.31-.63-.47,0-.05,.06-.12,.32-.19,.86,.37,.67,1.23-.12,1.53-.74,.25-2.08-.18-1.9-1.16,.43-2.08,4.29-2.39,4.96-.37,.07,.25,.16,.69,.05,1.22-.22,1.03-1.09,1.77-1.97,2.04-.72,.22-1.35,.09-1.69,0,0,.8,1.96,1.23,2.57,1.29,1.16,.18,3.06,.06,3.68-1.1,.06,.05,.15,.12,.22,.24,.21,.35,.08,.73,.05,.81-.15,.43-.52,.62-.6,.65,.36,0,.99-.04,1.67-.37,.46-.23,1.27-.64,1.4-1.4,.17-1.03-1.11-1.83-1.17-1.87-.72-.44-1.82-.6-2.55-.05-.11,.08-.52,.4-.61,.97-.09,.64,.3,1.11,.37,1.19-.35,.26-.58,.25-.69,.21-.52-.16-.77-1.28-.48-2.02,.44-1.17,2.31-1.74,3.78-1.33,1.27,.36,2.6,1.56,2.48,2.83-.11,1.11-1.27,1.79-1.78,2.08-2.7,1.57-5.99,.29-7.35-.25,0,0-1.4-.55-2.8-1.91-.3-.29-.56-.62-.67-1.07Z" style="fill: #cb9b52;"/>
          </g>
          <path d="M156.09,139.84h-.18c-.8-.8,.61-1.72,1.35-1.65,.98,.06,1.16,1.47,2.08,1.47,.12-1.1-.61-1.35-1.41-1.78-1.16-.55-.8-2.08,.49-2.08s2.21,.86,2.21,2.14c0,.65-.16,1.14-.27,1.42-.65,1.57-2.13,2.27-2.49,2.44-.42,.2-.79,.31-1.04,.37,.86-.61,.61-2.33-.74-2.33Z" style="fill: #cb9b52;"/>
        </g>
        <g>
          <g>
            <path d="M38.23,134.34c-1.59-1.15-4.73-2.16-7.19-.41-.14,.1-2.54,1.77-2.27,4.29,.2,1.9,1.51,3.1,2.76,4.17,1.8,1.53,3.72,2.13,4.9,2.39-.21-.19-.54-.48-.98-.8-1.26-.9-2.01-1.03-3.06-1.73-.44-.3-1.06-.77-1.7-1.53-.17-.2-1.32-1.51-1.06-3.35,.22-1.52,1.26-2.38,1.59-2.65,1.58-1.27,3.71-1.18,5.1-.53,.32,.15,1.6,.76,1.74,1.79,.02,.14,.07,.55-.16,.89-.33,.48-.92,.35-1.03,.67-.14,.38,.48,1.08,1.23,1.29,.67,.18,1.29-.18,1.65-.74,.03-.05,.32-.42,.37-.91,.15-1.37-1.56-2.61-1.89-2.84Z" style="fill: #cb9b52;"/>
            <path d="M23.81,139.62c-2.02-.06-3.74,.92-5.39,1.96-3.75,2.36-4.82,1.55-5.27,1.29-.99-.57-1.69-2.19-1.04-3.43,.46-.88,1.56-1.5,2.68-1.26,1.35,.29,1.83,1.63,1.85,1.69,.02-.21,.03-.67-.21-1.15,0,0-.3-.57-.99-.91-1.11-.55-3.68-.13-4.38,1.75-.35,.94-.16,2.06,.44,2.85,.91,1.18,2.41,1.19,2.98,1.2,.35,0,1.13-.03,3.63-1.29,2.54-1.28,2.59-1.68,3.94-2.03,1.59-.41,2.95-.22,3.6-.12,1.34,.2,2.39,.64,3.06,.98-.31-.23-.74-.52-1.3-.78-.16-.07-1.72-.7-3.6-.75Z" style="fill: #cb9b52;"/>
            <path d="M48.75,142.99c-.07,.17-.18,.44-.37,.74-1.59,2.59-5.25,2.97-6.39,3.08-.42,.04-1.7,.15-3.48-.12-2.68-.41-3.65-1.25-8.07-3.12-3.13-1.33-4.51-1.7-6.09-1.81-1.13-.08-3.52-.26-4.17,.98-.42,.81,.1,1.81,.17,1.95,.71,1.37,2.35,1.47,2.53,1.48,.76,.03,2.03-.25,2.57-1.23,.31-.55,.31-1.35-.25-1.72-.43-.31-2.33-.61-2.45,.12-.12,.61,1.41,.8,1.72,.74,.06,1.16-3.19,.12-1.96-1.23,.92-1.04,3.19-.37,3.68,.8,.11-.04,.3-.08,.53-.04,.44,.09,.67,.48,.75,.61,.41,.68,.17,1.75-.33,2.45-.76,1.08-2.1,1.25-2.87,1.35-.21,.03-1.24,.15-2.49-.24-.47-.15-1.13-.4-1.84-.95-.99-.76-1.56-1.79-1.5-2.84,.05-.94,.6-1.61,.83-1.88,1.74-2.04,5.4-2.06,7.97-1.16,.2,.07,.62,.26,1.45,.65,3.52,1.63,4.17,2.32,6.63,3.29,1.45,.57,2.49,.82,2.96,.93,1.08,.24,2,.45,3.18,.4,1.59-.07,2.76-.56,3.67-.95,.92-.39,2.25-1.08,3.62-2.29Zm-28.31,2.82c-.86-.74-1.16-1.67-1.26-2.08-.06,.19-.12,.5-.07,.85,.08,.66,.46,1.09,.7,1.36,1,1.11,2.49,1.4,2.74,1.44,.36,.06,3,.54,4.08-.96,.57-.79,.69-2.1,.21-2.42-.16-.1-.36-.09-.57-.04,0,.21-.04,.5-.17,.83-.41,1.11-1.44,1.59-1.64,1.68-1.32,.62-2.96,.25-4.02-.66Z" style="fill: #cb9b52;"/>
            <path d="M48.73,141.61c.07-.26,.07-.48,.06-.63-.09-.04-.23-.08-.4-.07-.58,.04-.8,.66-1.29,1.04-.68,.53-1.7,.46-2.33,.25-1-.35-1.97-1.41-1.79-2.4,.09-.46,.39-.75,.5-.85,.66-.62,1.65-.55,2.27-.31,.67,.26,1.47,.93,1.32,1.42-.14,.45-1.09,.72-1.57,.4-.02-.01-.27-.19-.24-.37,.04-.26,.63-.31,.63-.47,0-.05-.06-.12-.32-.19-.86,.37-.67,1.23,.12,1.53,.74,.25,2.08-.18,1.9-1.16-.43-2.08-4.29-2.39-4.96-.37-.07,.25-.16,.69-.05,1.22,.22,1.03,1.09,1.77,1.97,2.04,.72,.22,1.35,.09,1.69,0,0,.8-1.96,1.23-2.57,1.29-1.16,.18-3.06,.06-3.68-1.1-.06,.05-.15,.12-.22,.24-.21,.35-.08,.73-.05,.81,.15,.43,.52,.62,.6,.65-.36,0-.99-.04-1.67-.37-.46-.23-1.27-.64-1.4-1.4-.17-1.03,1.11-1.83,1.17-1.87,.72-.44,1.82-.6,2.55-.05,.11,.08,.52,.4,.61,.97,.09,.64-.3,1.11-.37,1.19,.35,.26,.58,.25,.69,.21,.52-.16,.77-1.28,.48-2.02-.44-1.17-2.31-1.74-3.78-1.33-1.27,.36-2.6,1.56-2.48,2.83,.11,1.11,1.27,1.79,1.78,2.08,2.7,1.57,5.99,.29,7.35-.25,0,0,1.4-.55,2.8-1.91,.3-.29,.56-.62,.67-1.07Z" style="fill: #cb9b52;"/>
          </g>
          <path d="M34.73,139.73h.18c.8-.8-.61-1.72-1.35-1.65-.98,.06-1.16,1.47-2.08,1.47-.12-1.1,.61-1.35,1.41-1.78,1.16-.55,.8-2.08-.49-2.08s-2.21,.86-2.21,2.14c0,.65,.16,1.14,.27,1.42,.65,1.57,2.13,2.27,2.49,2.44,.42,.2,.79,.31,1.04,.37-.86-.61-.61-2.33,.74-2.33Z" style="fill: #cb9b52;"/>
        </g>
        <g>
          <rect x="32.32" y="54.84" width="32.66" height="1.35" style="fill: #cb9b52;"/>
          <polygon points="32.32 53.13 31.52 53.13 32.32 54.48 64.98 54.48 64.98 53.13 32.32 53.13" style="fill: #cb9b52;"/>
          <polygon points="31.52 51.42 31.12 51.42 31.52 52.77 64.98 52.77 64.98 51.42 31.52 51.42" style="fill: #cb9b52;"/>
          <polygon points="64.54 44.95 64.54 46.3 95.25 46.3 125.94 46.3 125.94 44.95 95.25 44.95 64.54 44.95" style="fill: #cb9b52;"/>
          <polygon points="95.25 41.53 63.74 41.53 63.74 42.88 95.25 42.88 126.74 42.88 126.74 41.53 95.25 41.53" style="fill: #cb9b52;"/>
          <path d="M65.34,48.01v30.58h59.77v-30.58h-59.77Zm6.77,28.35h-2.24v-3.86h2.24v3.86Zm0-4.22h-2.24v-3.86h2.24v3.86Zm0-11.28h-2.24v-4.53h2.24v4.53Zm0-4.9h-2.24v-4.53h2.24v4.53Zm2.59,20.4h-2.24v-3.86h2.24v3.86Zm0-4.22h-2.24v-3.86h2.24v3.86Zm0-11.28h-2.24v-4.53h2.24v4.53Zm0-4.9h-2.24v-4.53h2.24v4.53Zm2.59,20.4h-2.24v-3.86h2.24v3.86Zm0-4.22h-2.24v-3.86h2.24v3.86Zm0-11.28h-2.24v-4.53h2.24v4.53Zm0-4.9h-2.24v-4.53h2.24v4.53Zm5.63,20.4h-2.24v-3.86h2.24v3.86Zm0-4.22h-2.24v-3.86h2.24v3.86Zm0-11.28h-2.24v-4.53h2.24v4.53Zm0-4.9h-2.24v-4.53h2.24v4.53Zm2.59,20.39h-2.24v-3.86h2.24v3.86Zm0-4.22h-2.24v-3.86h2.24v3.86Zm0-11.28h-2.24v-4.53h2.24v4.53Zm0-4.9h-2.24v-4.53h2.24v4.53Zm2.59,20.39h-2.24v-3.86h2.24v3.86Zm0-4.22h-2.24v-3.86h2.24v3.86Zm0-11.28h-2.24v-4.53h2.24v4.53Zm0-4.9h-2.24v-4.53h2.24v4.53Zm5.65,20.4h-2.24v-3.86h2.24v3.86Zm0-4.22h-2.24v-3.86h2.24v3.86Zm0-11.28h-2.24v-4.53h2.24v4.53Zm0-4.9h-2.24v-4.53h2.24v4.53Zm2.59,20.4h-2.24v-3.86h2.24v3.86Zm0-4.22h-2.24v-3.86h2.24v3.86Zm0-11.28h-2.24v-4.53h2.24v4.53Zm0-4.9h-2.24v-4.53h2.24v4.53Zm2.59,20.4h-2.24v-3.86h2.24v3.86Zm0-4.22h-2.24v-3.86h2.24v3.86Zm0-11.28h-2.24v-4.53h2.24v4.53Zm0-4.9h-2.24v-4.53h2.24v4.53Zm5.63,20.4h-2.24v-3.86h2.24v3.86Zm0-4.22h-2.24v-3.86h2.24v3.86Zm0-11.28h-2.24v-4.53h2.24v4.53Zm0-4.9h-2.24v-4.53h2.24v4.53Zm2.59,20.39h-2.24v-3.86h2.24v3.86Zm0-4.22h-2.24v-3.86h2.24v3.86Zm0-11.28h-2.24v-4.53h2.24v4.53Zm0-4.9h-2.24v-4.53h2.24v4.53Zm2.59,20.39h-2.24v-3.86h2.24v3.86Zm0-4.22h-2.24v-3.86h2.24v3.86Zm0-11.28h-2.24v-4.53h2.24v4.53Zm0-4.9h-2.24v-4.53h2.24v4.53Zm5.65,20.39h-2.24v-3.86h2.24v3.86Zm0-4.22h-2.24v-3.86h2.24v3.86Zm0-11.28h-2.24v-4.53h2.24v4.53Zm0-4.9h-2.24v-4.53h2.24v4.53Zm2.59,20.39h-2.24v-3.86h2.24v3.86Zm0-4.22h-2.24v-3.86h2.24v3.86Zm0-11.28h-2.24v-4.53h2.24v4.53Zm0-4.9h-2.24v-4.53h2.24v4.53Zm2.59,20.39h-2.24v-3.86h2.24v3.86Zm0-4.22h-2.24v-3.86h2.24v3.86Zm0-11.28h-2.24v-4.53h2.24v4.53Zm0-4.9h-2.24v-4.53h2.24v4.53Z" style="fill: #cb9b52;"/>
          <path d="M33.13,56.55h-.8l.8,1.35v24.39h31.86v-25.74h-31.86Zm26.17,23.5h-1.78v-3h1.78v3Zm0-3.36h-1.78v-3h1.78v3Zm0-5.76h-1.78v-3h1.78v3Zm0-3.36h-1.78v-3h1.78v3Zm2.14,12.48h-1.78v-3h1.78v3Zm0-3.36h-1.78v-3h1.78v3Zm0-5.76h-1.78v-3h1.78v3Zm0-3.36h-1.78v-3h1.78v3Z" style="fill: #cb9b52;"/>
          <rect x="33.13" y="82.65" width="31.86" height=".36" transform="translate(98.11 165.65) rotate(180)" style="fill: #cb9b52;"/>
          <path d="M64.62,83.37v24.66h-31.14v-24.66h31.14m.36-.36h-31.86v25.38h31.86v-25.38h0Z" style="fill: #cb9b52;"/>
          <rect x="57.51" y="85.4" width="1.78" height="3" style="fill: #cb9b52;"/>
          <rect x="59.65" y="85.4" width="1.78" height="3" style="fill: #cb9b52;"/>
          <rect x="57.51" y="88.76" width="1.78" height="3" style="fill: #cb9b52;"/>
          <rect x="59.65" y="88.76" width="1.78" height="3" style="fill: #cb9b52;"/>
          <rect x="57.51" y="94.52" width="1.78" height="3" style="fill: #cb9b52;"/>
          <rect x="59.65" y="94.52" width="1.78" height="3" style="fill: #cb9b52;"/>
          <rect x="57.51" y="97.88" width="1.78" height="3" style="fill: #cb9b52;"/>
          <rect x="59.65" y="97.88" width="1.78" height="3" style="fill: #cb9b52;"/>
          <rect x="81.99" y="84.98" width="2.24" height="3.86" style="fill: #cb9b52;"/>
          <rect x="84.58" y="84.98" width="2.24" height="3.86" style="fill: #cb9b52;"/>
          <rect x="81.99" y="89.19" width="2.24" height="3.86" style="fill: #cb9b52;"/>
          <rect x="84.58" y="89.19" width="2.24" height="3.86" style="fill: #cb9b52;"/>
          <rect x="81.99" y="96.26" width="2.24" height="3.86" style="fill: #cb9b52;"/>
          <rect x="84.58" y="96.26" width="2.24" height="3.86" style="fill: #cb9b52;"/>
          <rect x="81.99" y="100.48" width="2.24" height="3.86" style="fill: #cb9b52;"/>
          <rect x="84.58" y="100.48" width="2.24" height="3.86" style="fill: #cb9b52;"/>
          <rect x="71.17" y="84.98" width="2.24" height="3.86" style="fill: #cb9b52;"/>
          <rect x="73.76" y="84.98" width="2.24" height="3.86" style="fill: #cb9b52;"/>
          <rect x="71.17" y="89.19" width="2.24" height="3.86" style="fill: #cb9b52;"/>
          <rect x="73.76" y="89.19" width="2.24" height="3.86" style="fill: #cb9b52;"/>
          <rect x="71.17" y="96.26" width="2.24" height="3.86" style="fill: #cb9b52;"/>
          <rect x="73.76" y="96.26" width="2.24" height="3.86" style="fill: #cb9b52;"/>
          <rect x="71.17" y="100.48" width="2.24" height="3.86" style="fill: #cb9b52;"/>
          <rect x="73.76" y="100.48" width="2.24" height="3.86" style="fill: #cb9b52;"/>
          <g>
            <path d="M75.37,81.61v.4h-.04c-.02-.09-.05-.16-.08-.2s-.07-.07-.12-.1c-.03-.01-.08-.02-.15-.02h-.11v1.15c0,.08,0,.12,.01,.14s.02,.04,.05,.05c.02,.01,.06,.02,.1,.02h.05v.04h-.78v-.04h.05s.08,0,.1-.02c.02-.01,.03-.03,.04-.05,0-.02,.01-.06,.01-.14v-1.15h-.11c-.1,0-.17,.02-.22,.06-.06,.06-.1,.14-.12,.25h-.04v-.4h1.34Z" style="fill: #cb9b52;"/>
            <path d="M76.07,81.7v.61h.03c.09,0,.16-.03,.21-.09,.04-.06,.07-.15,.08-.26h.04v.78h-.04c0-.09-.03-.15-.06-.21s-.06-.09-.1-.11c-.04-.02-.09-.03-.16-.03v.42c0,.08,0,.13,.01,.15s.02,.03,.04,.04,.05,.02,.09,.02h.09c.14,0,.25-.03,.33-.1,.08-.06,.14-.16,.18-.29h.04l-.07,.47h-1.29v-.04h.05s.08,0,.1-.02c.02-.01,.03-.03,.04-.05,0-.02,.01-.06,.01-.14v-.98c0-.07,0-.11,0-.12,0-.03-.02-.05-.04-.06-.03-.02-.07-.03-.11-.03h-.05v-.04h1.25v.44h-.04c-.02-.11-.05-.18-.09-.23s-.09-.08-.16-.1c-.04-.01-.12-.02-.23-.02h-.15Z" style="fill: #cb9b52;"/>
            <path d="M77.91,82.23l.41,.61c.07,.1,.12,.16,.15,.18,.03,.02,.06,.03,.1,.04v.04h-.73v-.04c.06,0,.1-.01,.11-.03,.02-.01,.03-.03,.03-.05,0-.01,0-.02,0-.03-.01-.02-.04-.06-.08-.12l-.22-.32-.23,.28c-.07,.08-.1,.14-.1,.17,0,.02,0,.04,.03,.06,.02,.02,.04,.03,.08,.04,.02,0,.05,0,.09,0v.04h-.57v-.04c.07,0,.12-.03,.15-.05,.05-.03,.12-.1,.21-.21l.3-.36-.38-.56c-.06-.09-.1-.14-.11-.15-.02-.02-.04-.04-.06-.05-.02-.01-.05-.02-.08-.02v-.04h.74v.04h-.04s-.07,0-.09,.02c-.02,.01-.03,.03-.03,.05,0,.02,0,.03,0,.04l.08,.11,.18,.28,.16-.19c.08-.1,.12-.17,.12-.21,0-.02,0-.04-.02-.06-.01-.02-.03-.03-.05-.04s-.05-.01-.1-.01v-.04h.55v.04s-.08,0-.1,.02c-.03,.01-.05,.03-.08,.06-.02,.02-.07,.07-.14,.16l-.28,.34Z" style="fill: #cb9b52;"/>
            <path d="M79.2,82.38v.46c0,.08,0,.12,.01,.14s.02,.04,.05,.05c.02,.01,.06,.02,.1,.02h.05v.04h-.78v-.04h.05s.08,0,.1-.02c.02-.01,.03-.03,.04-.05,0-.02,.01-.06,.01-.14v-.98c0-.08,0-.12-.01-.14,0-.02-.02-.04-.05-.05-.02-.01-.06-.02-.1-.02h-.05v-.04h.78v.04h-.05s-.08,0-.1,.02c-.02,.01-.03,.03-.04,.05,0,.02-.01,.06-.01,.14v.42h.53v-.42c0-.08,0-.12-.01-.14,0-.02-.02-.04-.05-.05-.02-.01-.06-.02-.1-.02h-.05v-.04h.78v.04h-.05s-.08,0-.1,.02c-.02,.01-.03,.03-.05,.05,0,.02-.01,.06-.01,.14v.98c0,.08,0,.12,.01,.14,0,.02,.02,.04,.05,.05s.06,.02,.1,.02h.05v.04h-.78v-.04h.05s.08,0,.1-.02c.02-.01,.03-.03,.04-.05,0-.02,.01-.06,.01-.14v-.46h-.53Z" style="fill: #cb9b52;"/>
            <path d="M81.2,81.59c.24,0,.43,.06,.58,.21,.15,.15,.22,.33,.22,.55,0,.19-.06,.36-.17,.5-.15,.19-.35,.29-.62,.29s-.48-.09-.62-.27c-.12-.14-.17-.31-.17-.51,0-.22,.08-.41,.23-.55,.15-.15,.34-.22,.56-.21Zm.01,.07c-.14,0-.24,.07-.31,.21-.06,.11-.09,.28-.09,.49,0,.25,.04,.44,.13,.56,.06,.09,.15,.13,.26,.13,.08,0,.14-.02,.19-.05,.06-.05,.11-.12,.15-.22,.04-.1,.05-.24,.05-.4,0-.2-.02-.34-.05-.44-.04-.1-.08-.17-.14-.21-.06-.04-.12-.06-.2-.06Z" style="fill: #cb9b52;"/>
            <path d="M83.59,81.65c-.08,0-.13,.01-.16,.04-.02,.03-.04,.07-.04,.14v1.04c0,.08,.01,.13,.04,.15,.02,.02,.08,.04,.16,.04v.04h-.75v-.04c.06,0,.1,0,.13-.01,.02-.01,.04-.03,.05-.05,.01-.02,.02-.06,.02-.12v-1.17h-.36v.45c0,.19,0,.33-.01,.43,0,.1-.03,.19-.08,.28-.04,.09-.09,.15-.16,.2-.07,.04-.14,.07-.22,.07-.07,0-.13-.02-.17-.06-.04-.04-.06-.08-.06-.14,0-.05,.01-.08,.04-.11,.02-.03,.06-.04,.1-.04,.08,0,.13,.05,.14,.16,0,.05,.02,.07,.06,.07,.05,0,.1-.03,.15-.09,.05-.06,.09-.15,.1-.26,.02-.11,.03-.27,.03-.47v-.28c0-.08,0-.13-.01-.16-.01-.03-.03-.05-.06-.06-.03-.01-.08-.02-.15-.02v-.04h1.21v.04Z" style="fill: #cb9b52;"/>
            <path d="M84.52,81.59c.24,0,.43,.06,.58,.21,.15,.15,.22,.33,.22,.55,0,.19-.06,.36-.17,.5-.15,.19-.35,.29-.62,.29s-.48-.09-.62-.27c-.12-.14-.17-.31-.17-.51,0-.22,.08-.41,.23-.55,.15-.15,.34-.22,.56-.21Zm.01,.07c-.14,0-.24,.07-.31,.21-.06,.11-.09,.28-.09,.49,0,.25,.04,.44,.13,.56,.06,.09,.15,.13,.26,.13,.08,0,.14-.02,.19-.05,.06-.05,.11-.12,.15-.22,.04-.1,.05-.24,.05-.4,0-.2-.02-.34-.06-.44s-.08-.17-.14-.21c-.06-.04-.12-.06-.2-.06Z" style="fill: #cb9b52;"/>
            <path d="M85.44,81.61h1.31v.4h-.04c-.02-.1-.04-.17-.07-.21-.03-.04-.06-.07-.1-.08s-.12-.02-.24-.02h-.3v1.16c0,.08,.01,.14,.04,.16,.02,.02,.07,.03,.13,.03h.04v.04h-.78v-.04h.04c.06,0,.11-.01,.13-.04,.02-.02,.04-.08,.04-.16v-1.03c0-.07-.01-.12-.03-.14-.02-.03-.06-.04-.13-.04h-.05v-.04Z" style="fill: #cb9b52;"/>
            <path d="M87.97,81.86c0-.08-.01-.13-.03-.16-.02-.03-.07-.04-.14-.04h-.05v-.04h.8v.04h-.05c-.07,0-.11,.01-.14,.04s-.03,.08-.03,.17v.98c0,.09,.01,.15,.03,.18,.02,.03,.07,.04,.14,.04h.05v.04h-.8v-.04h.05c.07,0,.12-.01,.14-.04s.03-.09,.03-.17v-.81l-.53,.82c0,.07,0,.12,.03,.15,.02,.03,.07,.05,.14,.05h.05v.04h-.8v-.04h.05c.07,0,.12-.01,.14-.04,.02-.03,.03-.09,.03-.17v-.98c0-.09,0-.15-.03-.17s-.07-.04-.14-.04h-.05v-.04h.8v.04h-.05c-.07,0-.11,.01-.13,.04s-.03,.09-.03,.17v.82l.53-.82Z" style="fill: #cb9b52;"/>
            <path d="M89.47,81.61h.72v.04c-.1,0-.16,0-.18,.03-.02,.02-.03,.07-.03,.14v1.05c0,.06,0,.09,.01,.12,0,.02,.02,.04,.04,.05s.06,.02,.1,.02c0,0,.02,0,.05,0v.04h-.78v-.04c.07,0,.11,0,.14-.02,.02,0,.04-.02,.05-.05,.01-.02,.02-.06,.02-.1v-.48c-.17,.09-.33,.14-.47,.14-.08,0-.14-.01-.2-.04-.06-.03-.09-.06-.12-.11-.02-.05-.03-.12-.03-.21v-.35c0-.08-.01-.14-.04-.16-.03-.02-.08-.04-.16-.04v-.04h.72v.04s-.09,.01-.11,.03-.04,.06-.04,.13v.4s0,.08,.01,.1c0,.02,.03,.04,.05,.06,.03,.02,.07,.03,.11,.03,.09,0,.19-.03,.29-.08v-.46c0-.07,0-.11,0-.13,0-.02-.02-.04-.04-.06-.02-.01-.06-.02-.1-.02v-.04Z" style="fill: #cb9b52;"/>
            <path d="M90.85,81.7v.61h.03c.09,0,.16-.03,.21-.09,.04-.06,.07-.15,.08-.26h.04v.78h-.04c0-.09-.03-.15-.06-.21-.03-.05-.06-.09-.1-.11s-.09-.03-.16-.03v.42c0,.08,0,.13,.01,.15s.02,.03,.04,.04c.02,.01,.05,.02,.09,.02h.09c.14,0,.25-.03,.33-.1,.08-.06,.14-.16,.18-.29h.04l-.07,.47h-1.29v-.04h.05s.08,0,.1-.02c.02-.01,.03-.03,.04-.05,0-.02,.01-.06,.01-.14v-.98c0-.07,0-.11,0-.12,0-.03-.02-.05-.04-.06-.03-.02-.07-.03-.11-.03h-.05v-.04h1.25v.44h-.04c-.02-.11-.05-.18-.09-.23-.04-.05-.09-.08-.16-.1-.04-.01-.12-.02-.23-.02h-.15Z" style="fill: #cb9b52;"/>
            <path d="M93.24,81.58v.52h-.04c-.03-.13-.09-.24-.18-.31s-.19-.11-.3-.11c-.09,0-.18,.03-.26,.08s-.13,.12-.17,.21c-.05,.11-.07,.23-.07,.37s.02,.25,.05,.36c.03,.11,.09,.19,.16,.25,.07,.06,.16,.08,.28,.08,.09,0,.18-.02,.26-.06s.16-.11,.25-.21v.13c-.08,.09-.17,.15-.26,.19-.09,.04-.2,.06-.32,.06-.16,0-.3-.03-.42-.1-.12-.06-.22-.16-.29-.27-.07-.12-.1-.25-.1-.38,0-.14,.04-.28,.11-.4s.17-.23,.3-.3c.13-.07,.26-.11,.4-.11,.1,0,.22,.02,.33,.07,.07,.03,.11,.04,.13,.04,.02,0,.04,0,.06-.03,.02-.02,.03-.04,.03-.08h.04Z" style="fill: #cb9b52;"/>
            <path d="M93.41,81.61h.78v.04h-.02c-.07,0-.12,.01-.15,.04-.02,.03-.04,.08-.04,.15v.45c.1,0,.17,0,.2-.01s.06-.03,.09-.06,.05-.1,.08-.19c.03-.11,.06-.2,.08-.25,.03-.06,.06-.1,.11-.13s.11-.05,.18-.05,.13,.02,.17,.06,.06,.09,.06,.15c0,.05-.01,.08-.04,.11s-.06,.04-.11,.04c-.08,0-.13-.05-.13-.15,0-.05-.02-.07-.05-.07-.03,0-.06,.02-.08,.06-.02,.04-.05,.1-.08,.2-.03,.09-.05,.17-.07,.21-.02,.05-.05,.09-.08,.12,.05,.01,.08,.03,.11,.05,.02,.02,.05,.04,.07,.07,.02,.03,.06,.11,.13,.23l.15,.27s.05,.07,.08,.09,.07,.03,.12,.03v.04h-.5l-.31-.57c-.04-.06-.06-.1-.08-.12s-.05-.02-.1-.02v.5c0,.07,.01,.12,.04,.14,.03,.02,.08,.03,.16,.03v.04h-.78v-.04c.09,0,.14-.01,.17-.04,.03-.02,.04-.07,.04-.15v-1c0-.09-.01-.15-.03-.18-.02-.03-.07-.04-.15-.04h-.03v-.04Z" style="fill: #cb9b52;"/>
            <path d="M96.13,81.86c0-.08-.01-.13-.03-.16-.02-.03-.07-.04-.14-.04h-.05v-.04h.8v.04h-.05c-.07,0-.11,.01-.14,.04-.02,.03-.03,.08-.03,.17v.98c0,.09,.01,.15,.03,.18,.02,.03,.07,.04,.14,.04h.05v.04h-.8v-.04h.05c.07,0,.11-.01,.14-.04s.03-.09,.03-.17v-.81l-.53,.82c0,.07,0,.12,.03,.15,.02,.03,.07,.05,.14,.05h.05v.04h-.8v-.04h.05c.07,0,.12-.01,.14-.04s.03-.09,.03-.17v-.98c0-.09,0-.15-.03-.17-.02-.03-.07-.04-.14-.04h-.05v-.04h.8v.04h-.05c-.07,0-.11,.01-.13,.04-.02,.03-.03,.09-.03,.17v.82l.53-.82Z" style="fill: #cb9b52;"/>
            <path d="M97.89,81.86c0-.08-.01-.13-.03-.16-.02-.03-.07-.04-.14-.04h-.05v-.04h.8v.04h-.05c-.07,0-.11,.01-.14,.04s-.03,.08-.03,.17v.98c0,.09,.01,.15,.03,.18,.02,.03,.07,.04,.14,.04h.05v.04h-.8v-.04h.05c.07,0,.11-.01,.14-.04s.03-.09,.03-.17v-.81l-.53,.82c0,.07,0,.12,.03,.15,.02,.03,.07,.05,.14,.05h.05v.04h-.8v-.04h.05c.07,0,.12-.01,.14-.04s.03-.09,.03-.17v-.98c0-.09,0-.15-.03-.17-.02-.03-.07-.04-.14-.04h-.05v-.04h.8v.04h-.05c-.07,0-.11,.01-.13,.04-.02,.03-.03,.09-.03,.17v.82l.53-.82Zm-.27-.39c-.15,0-.26-.02-.33-.06s-.1-.09-.1-.15c0-.03,.01-.06,.03-.07,.02-.02,.05-.03,.08-.03,.06,0,.11,.04,.14,.12,.02,.04,.04,.07,.07,.09,.03,.02,.06,.03,.11,.03,.05,0,.09,0,.12-.03,.03-.02,.05-.05,.07-.09,.03-.07,.08-.11,.14-.11,.03,0,.06,0,.08,.03,.02,.02,.03,.05,.03,.08,0,.06-.03,.1-.1,.14-.07,.04-.18,.06-.33,.06Z" style="fill: #cb9b52;"/>
            <path d="M100.19,81.61h.5v.04c-.05,0-.09,.02-.13,.06s-.07,.1-.13,.2l-.46,.91c-.07,.14-.14,.23-.19,.26-.05,.03-.12,.05-.19,.05-.08,0-.14-.02-.18-.06-.04-.04-.06-.09-.06-.15,0-.04,.01-.08,.04-.11,.03-.03,.06-.04,.11-.04,.04,0,.07,.01,.09,.03s.03,.06,.04,.11c0,.06,.03,.09,.08,.09,.05,0,.1-.05,.15-.15l.02-.04-.53-.97c-.05-.08-.09-.13-.12-.16-.03-.02-.08-.04-.15-.04v-.04h.74v.04h-.03c-.09,0-.13,.02-.13,.06,0,.02,0,.04,.02,.07l.37,.68,.28-.56c.04-.08,.06-.13,.06-.16,0-.03-.01-.05-.03-.06-.02-.02-.08-.03-.18-.03v-.04Z" style="fill: #cb9b52;"/>
            <path d="M101.33,82.38v.46c0,.08,0,.12,.01,.14s.02,.04,.05,.05c.02,.01,.06,.02,.1,.02h.05v.04h-.78v-.04h.05s.08,0,.1-.02c.02-.01,.03-.03,.04-.05,0-.02,.01-.06,.01-.14v-.98c0-.08,0-.12-.01-.14,0-.02-.02-.04-.05-.05-.02-.01-.06-.02-.1-.02h-.05v-.04h.78v.04h-.05s-.08,0-.1,.02c-.02,.01-.03,.03-.04,.05,0,.02-.01,.06-.01,.14v.42h.53v-.42c0-.08,0-.12-.01-.14,0-.02-.02-.04-.05-.05-.02-.01-.06-.02-.1-.02h-.05v-.04h.78v.04h-.05s-.08,0-.1,.02c-.02,.01-.03,.03-.04,.05,0,.02-.01,.06-.01,.14v.98c0,.08,0,.12,.01,.14,0,.02,.02,.04,.05,.05s.06,.02,.1,.02h.05v.04h-.78v-.04h.05s.08,0,.1-.02c.02-.01,.03-.03,.04-.05,0-.02,.01-.06,.01-.14v-.46h-.53Z" style="fill: #cb9b52;"/>
            <path d="M103.6,81.86c0-.08-.01-.13-.03-.16-.02-.03-.07-.04-.14-.04h-.05v-.04h.8v.04h-.05c-.07,0-.11,.01-.14,.04-.02,.03-.03,.08-.03,.17v.98c0,.09,.01,.15,.03,.18,.02,.03,.07,.04,.14,.04h.05v.04h-.8v-.04h.05c.07,0,.12-.01,.14-.04,.02-.03,.03-.09,.03-.17v-.81l-.53,.82c0,.07,0,.12,.03,.15,.02,.03,.07,.05,.14,.05h.05v.04h-.8v-.04h.05c.07,0,.12-.01,.14-.04,.02-.03,.03-.09,.03-.17v-.98c0-.09,0-.15-.03-.17-.02-.03-.07-.04-.14-.04h-.05v-.04h.8v.04h-.05c-.07,0-.11,.01-.13,.04s-.03,.09-.03,.17v.82l.53-.82Z" style="fill: #cb9b52;"/>
            <path d="M105.22,82.31c.14,.03,.24,.07,.3,.12,.08,.07,.12,.15,.12,.26,0,.11-.04,.2-.13,.28-.11,.09-.27,.13-.48,.13h-.76v-.04c.07,0,.12,0,.14-.02,.02-.01,.04-.03,.05-.05,.01-.02,.01-.07,.01-.15v-.97c0-.08,0-.13-.01-.15,0-.02-.03-.04-.05-.05s-.07-.02-.14-.02v-.04h.71c.17,0,.29,.02,.36,.05,.07,.03,.13,.08,.17,.14s.06,.12,.06,.19c0,.07-.03,.14-.08,.19-.05,.06-.14,.1-.28,.13Zm-.4,.06v.53s0,.07,.03,.09,.05,.03,.09,.03c.06,0,.11-.01,.16-.04,.05-.03,.09-.06,.11-.11,.03-.05,.04-.1,.04-.17,0-.07-.02-.13-.05-.19-.03-.06-.08-.09-.13-.12-.06-.02-.14-.03-.25-.03Zm0-.09c.1,0,.18-.01,.23-.03,.05-.02,.09-.06,.11-.1,.03-.04,.04-.1,.04-.16s-.01-.12-.04-.16c-.03-.04-.06-.07-.11-.1-.05-.02-.13-.03-.23-.03v.59Z" style="fill: #cb9b52;"/>
            <path d="M106.33,81.7v.61h.03c.09,0,.16-.03,.21-.09,.04-.06,.07-.15,.08-.26h.04v.78h-.04c0-.09-.03-.15-.06-.21-.03-.05-.06-.09-.1-.11-.04-.02-.09-.03-.16-.03v.42c0,.08,0,.13,.01,.15s.02,.03,.04,.04c.02,.01,.05,.02,.09,.02h.09c.14,0,.25-.03,.33-.1s.14-.16,.18-.29h.04l-.07,.47h-1.29v-.04h.05s.08,0,.1-.02c.02-.01,.03-.03,.04-.05,0-.02,.01-.06,.01-.14v-.98c0-.07,0-.11,0-.12,0-.03-.02-.05-.04-.06-.03-.02-.07-.03-.11-.03h-.05v-.04h1.25v.44h-.04c-.02-.11-.05-.18-.09-.23-.04-.05-.09-.08-.16-.1-.04-.01-.12-.02-.23-.02h-.15Z" style="fill: #cb9b52;"/>
            <path d="M107.83,82.43v.41c0,.08,0,.13,.01,.15s.03,.04,.05,.05,.07,.02,.14,.02v.04h-.76v-.04c.07,0,.12,0,.14-.02,.02-.01,.04-.03,.05-.05,.01-.02,.01-.07,.01-.15v-.97c0-.08,0-.13-.01-.15s-.03-.04-.05-.05-.07-.02-.14-.02v-.04h.65c.21,0,.37,.04,.46,.11,.09,.08,.14,.17,.14,.29,0,.1-.03,.18-.09,.25-.06,.07-.14,.12-.25,.14-.07,.02-.19,.03-.36,.03Zm0-.73v.64s.04,0,.06,0c.09,0,.16-.03,.21-.08s.07-.14,.07-.25-.02-.19-.07-.24c-.05-.05-.12-.08-.22-.08h-.04Z" style="fill: #cb9b52;"/>
            <path d="M110.12,81.58v.52h-.04c-.03-.13-.09-.24-.18-.31-.09-.07-.19-.11-.3-.11-.09,0-.18,.03-.26,.08s-.13,.12-.17,.21c-.05,.11-.07,.23-.07,.37s.02,.25,.05,.36c.03,.11,.09,.19,.16,.25,.07,.06,.17,.08,.28,.08,.09,0,.18-.02,.26-.06,.08-.04,.16-.11,.25-.21v.13c-.08,.09-.17,.15-.26,.19-.09,.04-.2,.06-.32,.06-.16,0-.3-.03-.42-.1-.12-.06-.22-.16-.29-.27-.07-.12-.1-.25-.1-.38,0-.14,.04-.28,.11-.4s.17-.23,.3-.3c.13-.07,.26-.11,.4-.11,.11,0,.22,.02,.33,.07,.07,.03,.11,.04,.13,.04,.02,0,.04,0,.06-.03,.02-.02,.03-.04,.03-.08h.04Z" style="fill: #cb9b52;"/>
            <path d="M111.39,81.86c0-.08-.01-.13-.03-.16-.02-.03-.07-.04-.14-.04h-.05v-.04h.8v.04h-.05c-.07,0-.11,.01-.14,.04-.02,.03-.03,.08-.03,.17v.98c0,.09,.01,.15,.03,.18,.02,.03,.07,.04,.14,.04h.05v.04h-.8v-.04h.05c.07,0,.12-.01,.14-.04,.02-.03,.03-.09,.03-.17v-.81l-.53,.82c0,.07,0,.12,.03,.15,.02,.03,.07,.05,.14,.05h.05v.04h-.8v-.04h.05c.07,0,.12-.01,.14-.04,.02-.03,.03-.09,.03-.17v-.98c0-.09,0-.15-.03-.17-.02-.03-.07-.04-.14-.04h-.05v-.04h.8v.04h-.05c-.07,0-.11,.01-.13,.04s-.03,.09-.03,.17v.82l.53-.82Z" style="fill: #cb9b52;"/>
            <path d="M113.42,81.61v.4h-.04c-.02-.09-.05-.16-.08-.2-.03-.04-.07-.07-.12-.1-.03-.01-.08-.02-.15-.02h-.11v1.15c0,.08,0,.12,.01,.14,0,.02,.02,.04,.05,.05,.02,.01,.06,.02,.1,.02h.05v.04h-.78v-.04h.05s.08,0,.1-.02c.02-.01,.03-.03,.04-.05,0-.02,.01-.06,.01-.14v-1.15h-.11c-.1,0-.17,.02-.22,.06-.06,.06-.1,.14-.12,.25h-.04v-.4h1.34Z" style="fill: #cb9b52;"/>
            <path d="M114.11,81.7v.61h.03c.09,0,.16-.03,.21-.09,.04-.06,.07-.15,.08-.26h.04v.78h-.04c0-.09-.03-.15-.06-.21-.03-.05-.06-.09-.1-.11-.04-.02-.09-.03-.16-.03v.42c0,.08,0,.13,.01,.15s.02,.03,.04,.04c.02,.01,.05,.02,.09,.02h.09c.14,0,.25-.03,.33-.1s.14-.16,.18-.29h.04l-.07,.47h-1.29v-.04h.05s.08,0,.1-.02c.02-.01,.03-.03,.04-.05,0-.02,.01-.06,.01-.14v-.98c0-.07,0-.11,0-.12,0-.03-.02-.05-.04-.06-.03-.02-.07-.03-.11-.03h-.05v-.04h1.25v.44h-.04c-.02-.11-.05-.18-.09-.23-.04-.05-.09-.08-.16-.1-.04-.01-.12-.02-.23-.02h-.15Z" style="fill: #cb9b52;"/>
            <path d="M116.42,81.61v.4h-.04c-.02-.09-.05-.16-.08-.2-.03-.04-.07-.07-.12-.1-.03-.01-.08-.02-.15-.02h-.11v1.15c0,.08,0,.12,.01,.14,0,.02,.02,.04,.05,.05,.02,.01,.06,.02,.1,.02h.05v.04h-.78v-.04h.05s.08,0,.1-.02c.02-.01,.03-.03,.04-.05,0-.02,.01-.06,.01-.14v-1.15h-.11c-.1,0-.17,.02-.22,.06-.06,.06-.1,.14-.12,.25h-.04v-.4h1.34Z" style="fill: #cb9b52;"/>
          </g>
          <rect x="114.45" y="84.98" width="2.24" height="3.86" style="fill: #cb9b52;"/>
          <rect x="117.04" y="84.98" width="2.24" height="3.86" style="fill: #cb9b52;"/>
          <rect x="114.45" y="89.19" width="2.24" height="3.86" style="fill: #cb9b52;"/>
          <rect x="117.04" y="89.19" width="2.24" height="3.86" style="fill: #cb9b52;"/>
          <rect x="114.45" y="96.26" width="2.24" height="3.86" style="fill: #cb9b52;"/>
          <rect x="117.04" y="96.26" width="2.24" height="3.86" style="fill: #cb9b52;"/>
          <rect x="114.45" y="100.48" width="2.24" height="3.86" style="fill: #cb9b52;"/>
          <rect x="117.04" y="100.48" width="2.24" height="3.86" style="fill: #cb9b52;"/>
          <rect x="103.64" y="84.98" width="2.24" height="3.86" style="fill: #cb9b52;"/>
          <rect x="106.23" y="84.98" width="2.24" height="3.86" style="fill: #cb9b52;"/>
          <rect x="103.64" y="89.19" width="2.24" height="3.86" style="fill: #cb9b52;"/>
          <rect x="106.23" y="89.19" width="2.24" height="3.86" style="fill: #cb9b52;"/>
          <rect x="103.64" y="96.26" width="2.24" height="3.86" style="fill: #cb9b52;"/>
          <rect x="106.23" y="96.26" width="2.24" height="3.86" style="fill: #cb9b52;"/>
          <rect x="103.64" y="100.48" width="2.24" height="3.86" style="fill: #cb9b52;"/>
          <rect x="106.23" y="100.48" width="2.24" height="3.86" style="fill: #cb9b52;"/>
          <rect x="88.87" y="93.77" width=".36" height="14.45" style="fill: #cb9b52;"/>
          <path d="M95.41,90.66v2.4h-.36v-2.4c-1.25,.09-2.23,1.12-2.23,2.4h4.83c0-1.27-.99-2.3-2.23-2.4Z" style="fill: #cb9b52;"/>
          <rect x="101.24" y="93.77" width=".36" height="14.45" style="fill: #cb9b52;"/>
          <path d="M95.23,109.27c-3.42,0-6.12-.86-6.28-2v-.1s12.56,0,12.56,0v.1c-.17,1.14-2.87,2-6.28,2Zm-6.08-1.92c.3,.97,2.96,1.74,6.08,1.74s5.76-.77,6.07-1.74h-12.14Z" style="fill: #cb9b52;"/>
          <rect x="89.68" y="93.41" width=".18" height="13.84" style="fill: #cb9b52;"/>
          <rect x="90.4" y="93.41" width=".18" height="13.84" style="fill: #cb9b52;"/>
          <rect x="91.11" y="93.41" width=".18" height="13.84" style="fill: #cb9b52;"/>
          <rect x="99.17" y="93.41" width=".18" height="13.84" style="fill: #cb9b52;"/>
          <rect x="99.89" y="93.41" width=".18" height="13.84" style="fill: #cb9b52;"/>
          <rect x="100.6" y="93.41" width=".18" height="13.84" style="fill: #cb9b52;"/>
          <rect x="92.81" y="95.61" width="2.24" height="6.8" style="fill: #cb9b52;"/>
          <rect x="95.4" y="95.61" width="2.24" height="6.8" style="fill: #cb9b52;"/>
          <rect x="92.81" y="102.77" width="2.24" height="3.62" style="fill: #cb9b52;"/>
          <rect x="95.4" y="102.77" width="2.24" height="3.62" style="fill: #cb9b52;"/>
          <polygon points="97.64 94.69 97.64 94.13 92.82 94.13 92.82 94.69 92.82 94.69 92.82 95.25 97.64 95.25 97.64 94.69 97.64 94.69" style="fill: #cb9b52;"/>
          <rect x="125.48" y="54.85" width="32.66" height="1.35" transform="translate(283.61 111.04) rotate(180)" style="fill: #cb9b52;"/>
          <polygon points="158.14 53.14 125.48 53.14 125.48 54.49 158.14 54.49 158.94 53.14 158.14 53.14" style="fill: #cb9b52;"/>
          <polygon points="158.94 51.43 125.48 51.43 125.48 52.78 158.94 52.78 159.34 51.43 158.94 51.43" style="fill: #cb9b52;"/>
          <path d="M157.33,56.55h-31.86v25.74h31.86v-24.39l.8-1.35h-.8Zm-26.53,23.5h-1.78v-3h1.78v3Zm0-3.36h-1.78v-3h1.78v3Zm0-5.76h-1.78v-3h1.78v3Zm0-3.36h-1.78v-3h1.78v3Zm2.14,12.48h-1.78v-3h1.78v3Zm0-3.36h-1.78v-3h1.78v3Zm0-5.76h-1.78v-3h1.78v3Zm0-3.36h-1.78v-3h1.78v3Z" style="fill: #cb9b52;"/>
          <rect x="125.48" y="82.65" width="31.86" height=".36" style="fill: #cb9b52;"/>
          <path d="M156.97,83.37v24.66h-31.14v-24.66h31.14m.36-.36h-31.86v25.38h31.86v-25.38h0Z" style="fill: #cb9b52;"/>
          <rect x="131.17" y="85.41" width="1.78" height="3" transform="translate(264.11 173.82) rotate(180)" style="fill: #cb9b52;"/>
          <rect x="129.03" y="85.41" width="1.78" height="3" transform="translate(259.84 173.82) rotate(180)" style="fill: #cb9b52;"/>
          <rect x="131.17" y="88.77" width="1.78" height="3" transform="translate(264.11 180.54) rotate(180)" style="fill: #cb9b52;"/>
          <rect x="129.03" y="88.77" width="1.78" height="3" transform="translate(259.84 180.54) rotate(180)" style="fill: #cb9b52;"/>
          <rect x="131.17" y="94.53" width="1.78" height="3" transform="translate(264.11 192.06) rotate(180)" style="fill: #cb9b52;"/>
          <rect x="129.03" y="94.53" width="1.78" height="3" transform="translate(259.84 192.06) rotate(180)" style="fill: #cb9b52;"/>
          <rect x="131.17" y="97.89" width="1.78" height="3" transform="translate(264.11 198.78) rotate(180)" style="fill: #cb9b52;"/>
          <rect x="129.03" y="97.89" width="1.78" height="3" transform="translate(259.84 198.78) rotate(180)" style="fill: #cb9b52;"/>
          <path d="M144.78,41.53c-1.86,0-3.38,1.51-3.38,3.38,0-1.87-1.51-3.38-3.38-3.38,1.87,0,3.38-1.51,3.38-3.38,0,1.86,1.51,3.38,3.38,3.38Z" style="fill: #cb9b52;"/>
          <rect x="110.75" y="93.67" width="28.36" height=".36" transform="translate(31.08 218.78) rotate(-90)" style="fill: #cb9b52;"/>
          <rect x="51.34" y="93.67" width="28.36" height=".36" transform="translate(-28.33 159.38) rotate(-90)" style="fill: #cb9b52;"/>
          <polygon points="65.34 78.95 65.34 79.31 65.34 79.67 125.11 79.67 125.11 79.31 125.11 78.95 65.34 78.95" style="fill: #cb9b52;"/>
          <rect x="65.34" y="108.03" width="23.89" height=".36" transform="translate(154.57 216.43) rotate(180)" style="fill: #cb9b52;"/>
          <rect x="101.24" y="108.03" width="23.88" height=".36" transform="translate(226.35 216.43) rotate(180)" style="fill: #cb9b52;"/>
          <path d="M95.4,111.55c-5.43,0-9.68-1.39-9.68-3.15h.36c0,1.35,3.74,2.79,9.32,2.79s9.32-1.44,9.32-2.79h.36c0,1.77-4.25,3.15-9.68,3.15Z" style="fill: #cb9b52;"/>
          <path d="M95.23,110.23c-3.52,0-6.27-.88-6.27-2.01h.18c0,.99,2.79,1.83,6.09,1.83s6.09-.84,6.09-1.83h.18c0,1.13-2.76,2.01-6.27,2.01Z" style="fill: #cb9b52;"/>
          <rect x="88.87" y="93.41" width="12.73" height=".36" style="fill: #cb9b52;"/>
          <path d="M100.78,93.41h-.18c0-3.05-2.41-5.54-5.37-5.54s-5.37,2.48-5.37,5.54h-.18c0-3.15,2.49-5.72,5.55-5.72s5.55,2.56,5.55,5.72Z" style="fill: #cb9b52;"/>
          <path d="M101.6,93.41h-.36c0-3.41-2.69-6.19-6.01-6.19s-6.01,2.77-6.01,6.19h-.36c0-3.61,2.86-6.55,6.37-6.55s6.37,2.94,6.37,6.55Z" style="fill: #cb9b52;"/>
          <path d="M100.07,93.41h-.18c0-2.65-2.09-4.8-4.66-4.8s-4.65,2.15-4.65,4.8h-.18c0-2.75,2.17-4.98,4.84-4.98s4.84,2.23,4.84,4.98Z" style="fill: #cb9b52;"/>
          <path d="M99.35,93.43h-.18c0-2.35-1.77-4.26-3.94-4.26s-3.94,1.91-3.94,4.26h-.18c0-2.45,1.85-4.44,4.12-4.44s4.12,1.99,4.12,4.44Z" style="fill: #cb9b52;"/>
          <polygon points="125.11 46.66 95.24 46.66 65.34 46.66 64.54 46.66 65.34 48.01 95.24 48.01 125.11 48.01 125.91 46.66 125.11 46.66" style="fill: #cb9b52;"/>
          <polygon points="125.94 43.24 95.25 43.24 64.54 43.24 63.74 43.24 64.54 44.59 95.25 44.59 125.94 44.59 126.74 43.24 125.94 43.24" style="fill: #cb9b52;"/>
        </g>
        <g>
          <path d="M5.13,126.65l2.99-1.16,.12,.31c-.61,.43-1.04,.79-1.28,1.16-.24,.31-.37,.73-.37,1.16,0,.24,.06,.61,.24,1.16l.31,.79,8.49-3.24c.55-.24,.92-.37,1.04-.49s.18-.31,.24-.49c.06-.24,0-.49-.12-.79l-.12-.37,.31-.12,2.2,5.74-.31,.12-.12-.37c-.12-.31-.31-.55-.49-.73-.12-.12-.31-.18-.49-.18s-.49,.06-1.04,.31l-8.49,3.24,.31,.79c.31,.73,.67,1.22,1.1,1.41,.61,.31,1.34,.37,2.2,.18l.12,.31-2.99,1.16-3.85-9.9h0Z" style="fill: #cb9b52;"/>
          <path d="M3.79,119.63l4.64-1.04-.06-.24c-.18-.73-.49-1.22-1.04-1.41-.55-.24-1.28-.31-2.14-.18l-.06-.31,5.99-1.34,.06,.31c-.61,.24-1.16,.49-1.53,.79s-.61,.61-.67,.98c-.06,.31-.06,.73,.06,1.28l3.24-.73c.61-.12,1.04-.24,1.16-.37,.12-.06,.24-.18,.31-.37s.06-.43,0-.73l-.18-.67c-.24-1.1-.67-1.89-1.34-2.38-.67-.55-1.53-.79-2.57-.86l-.06-.31,3.79-.31,2.26,9.9-.31,.06-.06-.37c-.06-.31-.18-.61-.37-.79-.12-.12-.24-.18-.49-.24-.12-.06-.49,0-1.1,.12l-7.52,1.71c-.49,.12-.86,.18-.92,.24-.18,.12-.31,.24-.37,.43-.12,.24-.12,.55-.06,.92l.06,.37-.31,.06-2.2-9.59,3.36-.79,.06,.31c-.79,.37-1.34,.73-1.65,1.1s-.49,.86-.49,1.47c0,.37,.06,.92,.24,1.83l.24,1.16h0Z" style="fill: #cb9b52;"/>
          <path d="M5.32,103.43l4.52-3.61c.73-.61,1.22-1.04,1.34-1.28,.12-.24,.24-.55,.24-.86h.31l.49,5.74h-.31c-.06-.43-.18-.73-.31-.86s-.24-.18-.43-.18c-.12,0-.18,.06-.24,.06-.18,.12-.49,.31-.92,.67l-2.38,1.89,2.32,1.59c.73,.49,1.16,.73,1.41,.67,.18,0,.31-.12,.43-.24s.24-.37,.24-.61v-.73h.31l.37,4.52h-.31c-.12-.49-.31-.92-.49-1.16-.31-.37-.92-.86-1.77-1.47l-3.06-2.08-4.16,3.36c-.67,.55-1.04,.86-1.16,.92-.18,.18-.31,.31-.37,.49s-.12,.37-.12,.61h-.31l-.49-5.81h.31v.31c0,.31,.12,.55,.24,.67,.12,.12,.24,.18,.43,.18,.12,0,.24-.06,.31-.06l.86-.67,2.08-1.65-1.59-1.1c-.86-.55-1.41-.86-1.71-.79-.18,0-.31,.06-.43,.18s-.24,.24-.31,.43-.06,.43-.06,.79H.31l-.24-4.4H.37c.06,.37,.12,.61,.18,.79,.12,.18,.24,.43,.49,.61,.12,.12,.61,.49,1.41,1.04l2.87,2.02h0Z" style="fill: #cb9b52;"/>
          <path d="M6.42,92.25l3.61,.31c.61,.06,.98,.06,1.16,0s.31-.18,.43-.37,.18-.43,.24-.79l.06-.37h.31l-.49,6.11h-.31l.06-.37c0-.37,0-.61-.12-.86-.06-.18-.18-.31-.37-.37-.12-.06-.49-.12-1.1-.18l-7.7-.61c-.61-.06-.98-.06-1.16,0s-.31,.18-.43,.37-.18,.43-.24,.79l-.06,.37h-.31l.49-6.11h.31l-.06,.37c0,.37,0,.61,.12,.86,.06,.18,.18,.31,.37,.37,.12,.06,.49,.12,1.1,.18l3.3,.24,.37-4.16-3.3-.24c-.61-.06-.98-.06-1.1,0-.18,.06-.31,.18-.43,.37s-.18,.43-.24,.79v.37h-.31l.49-6.11h.31v.37c0,.37,0,.61,.12,.86,.06,.18,.18,.31,.37,.37,.12,.06,.49,.12,1.1,.18l7.7,.61c.61,.06,.98,.06,1.16,0s.31-.18,.43-.37,.18-.43,.24-.79l.06-.37h.31l-.49,6.11h-.31l.06-.37c0-.37,0-.61-.12-.86-.06-.18-.18-.31-.37-.37-.12-.06-.49-.12-1.1-.18l-3.61-.31-.55,4.16h0Z" style="fill: #cb9b52;"/>
          <path d="M2.57,74.35c.37-1.83,1.22-3.18,2.63-4.09,1.41-.86,2.93-1.1,4.64-.73,1.47,.31,2.63,1.04,3.54,2.14,1.22,1.47,1.59,3.24,1.1,5.26-.49,2.08-1.53,3.48-3.18,4.28-1.28,.61-2.75,.79-4.22,.43-1.71-.37-2.99-1.28-3.85-2.75-.92-1.28-1.1-2.81-.67-4.52h0Zm.61,.06c-.24,1.04,.12,1.96,1.04,2.75,.79,.67,2.02,1.16,3.61,1.53,1.96,.43,3.48,.43,4.58,0,.79-.31,1.22-.92,1.47-1.77,.12-.55,.12-1.1-.06-1.53-.24-.61-.73-1.1-1.47-1.59-.73-.49-1.71-.86-2.99-1.1-1.53-.37-2.69-.49-3.48-.37s-1.41,.37-1.83,.73c-.49,.31-.73,.73-.86,1.34h0Z" style="fill: #cb9b52;"/>
          <path d="M9.59,55.1c-.24,.61-.31,1.04-.18,1.28s.43,.49,.98,.67l7.64,2.93c.61,.24,.98,.31,1.22,.18s.49-.49,.73-1.1l.31,.12-2.14,5.56-.31-.12c.18-.43,.24-.79,.24-.98s-.06-.37-.18-.55c-.12-.12-.43-.31-.86-.49l-8.62-3.3-1.04,2.63,3.3,1.28c1.34,.55,2.38,.98,3.12,1.28,.67,.37,1.28,.79,1.83,1.34,.55,.55,.86,1.16,.98,1.71,.12,.61,.12,1.22-.12,1.77-.18,.55-.49,.86-.92,1.04-.37,.18-.79,.18-1.22,.06-.37-.12-.61-.31-.73-.61-.12-.24-.18-.55-.06-.92,.24-.61,.73-.79,1.53-.55,.37,.12,.61,.06,.67-.18,.12-.37,.06-.79-.24-1.34-.31-.55-.86-1.04-1.59-1.47-.73-.43-1.89-.92-3.42-1.53l-2.08-.79c-.61-.24-.98-.37-1.22-.37s-.43,.06-.61,.24-.37,.55-.61,1.04l-.31-.12,3.42-8.92,.49,.18h0Z" style="fill: #cb9b52;"/>
          <path d="M14.05,46.54c.92-1.65,2.2-2.63,3.85-2.99,1.59-.37,3.18-.06,4.64,.86,1.28,.79,2.14,1.89,2.63,3.24,.67,1.77,.43,3.54-.73,5.32-1.16,1.77-2.63,2.81-4.46,2.99-1.47,.18-2.81-.18-4.16-.98-1.47-.92-2.38-2.2-2.75-3.85-.31-1.65,0-3.18,.98-4.58h0Zm.55,.18c-.55,.92-.55,1.89,.06,2.93,.49,.86,1.47,1.77,2.93,2.69,1.71,1.1,3.12,1.59,4.34,1.47,.86-.06,1.47-.49,1.96-1.22,.31-.49,.49-.98,.43-1.47-.06-.61-.31-1.28-.86-1.96s-1.34-1.34-2.44-2.08c-1.34-.86-2.38-1.34-3.18-1.53s-1.47-.12-1.96,.06c-.55,.31-.98,.61-1.28,1.1h0Z" style="fill: #cb9b52;"/>
          <path d="M19.25,39.03l6.78-7.82,2.38,2.08-.18,.24c-.67-.43-1.22-.61-1.59-.67s-.73,0-.98,.18c-.31,.18-.73,.61-1.34,1.28l-1.59,1.83,6.91,5.99c.49,.43,.86,.61,1.16,.61,.24,0,.55-.24,.92-.61l.18-.24,.24,.18-4.03,4.64-.24-.18,.24-.24c.31-.37,.49-.73,.49-.98s-.31-.61-.73-1.04l-6.11-5.32c-.43-.37-.73-.55-.98-.55s-.55,.18-.92,.55l-.24,.31-.37-.24h0Z" style="fill: #cb9b52;"/>
          <path d="M35.56,25.03c-.43-.49-.73-.73-1.04-.79-.24-.06-.61,.06-1.04,.49l-.31,.24-.18-.24,4.77-4.09,.18,.24-.31,.24c-.43,.37-.61,.67-.61,.92s.24,.67,.67,1.22l5.07,5.87c.49,.55,.86,.86,1.1,.86,.24,.06,.61-.12,1.04-.49l.31-.24,.18,.24-4.71,4.09-.18-.24,.31-.24c.43-.37,.61-.67,.61-.98s-.24-.67-.73-1.22l-4.16-4.83,1.1,7.64c.37,.43,.67,.67,.92,.79,.24,.12,.61-.06,1.1-.43l.31-.24,.18,.24-4.77,4.09-.18-.24,.31-.24c.43-.37,.61-.67,.61-.98s-.24-.67-.67-1.22l-5.07-5.87c-.49-.55-.79-.86-1.04-.92s-.61,.12-1.04,.49l-.31,.24-.18-.24,4.77-4.09,.18,.24-.37,.31c-.43,.37-.61,.67-.61,.98s.24,.67,.67,1.22l4.22,4.89-1.1-7.7h0Z" style="fill: #cb9b52;"/>
          <path d="M45.34,15.68l4.77-2.99,.18,.24c-.67,.43-.98,.73-1.04,.92-.06,.24,.06,.55,.37,1.04l4.46,7.03c.24,.37,.43,.61,.55,.73,.12,.12,.31,.18,.49,.18s.49-.12,.79-.31c.06-.06,.18-.12,.31-.18l.18,.24-5.19,3.24-.18-.24c.43-.31,.73-.55,.86-.67,.12-.18,.18-.37,.18-.55s-.12-.43-.31-.73l-2.02-3.24c-.79,1.34-1.65,2.32-2.57,2.87-.49,.31-1.04,.55-1.47,.61-.49,.06-.86,0-1.22-.24s-.73-.61-1.1-1.22l-1.47-2.32c-.37-.55-.67-.86-.98-.86-.31-.06-.67,.12-1.22,.43l-.18-.24,4.77-2.99,.18,.24c-.31,.18-.55,.43-.61,.67-.12,.24,0,.61,.24,1.04l1.71,2.69c.18,.31,.37,.49,.49,.61,.12,.12,.37,.18,.61,.18s.55-.12,.86-.31c.61-.37,1.16-.98,1.59-1.71l-1.96-3.06c-.31-.43-.49-.73-.61-.86s-.31-.18-.49-.18-.49,.12-.73,.31l-.24-.37h0Z" style="fill: #cb9b52;"/>
          <path d="M56.59,10.43l2.02,4.34,.18-.12c.67-.31,1.1-.73,1.16-1.28,.12-.55,0-1.28-.31-2.14l.31-.12,2.57,5.62-.31,.12c-.37-.61-.73-1.04-1.1-1.34-.37-.31-.73-.43-1.04-.49-.31,0-.73,.12-1.28,.31l1.41,2.99c.24,.61,.49,.92,.55,1.04,.12,.12,.24,.18,.43,.18s.43-.06,.73-.18l.61-.31c.98-.43,1.71-1.04,2.08-1.77s.49-1.65,.31-2.69l.31-.12,1.1,3.61-9.23,4.22-.12-.31,.37-.18c.31-.12,.55-.31,.67-.49,.12-.12,.12-.31,.12-.55,0-.18-.12-.49-.37-1.04l-3.18-6.91c-.24-.49-.37-.79-.43-.86-.12-.18-.31-.24-.49-.31-.24-.06-.55,0-.92,.18l-.37,.18-.12-.31,8.98-4.09,1.47,3.18-.31,.12c-.49-.73-.98-1.16-1.41-1.34-.43-.18-.92-.31-1.53-.18-.37,.06-.92,.24-1.71,.61l-1.16,.43h0Z" style="fill: #cb9b52;"/>
          <path d="M75.9,3.03l1.1,3.91-.31,.06c-.55-.98-1.22-1.59-2.02-1.96s-1.65-.43-2.51-.18c-.73,.18-1.28,.61-1.77,1.16s-.73,1.22-.86,1.96c-.12,.92,0,1.89,.24,2.93,.31,1.04,.67,1.89,1.16,2.69,.49,.73,1.04,1.28,1.71,1.53,.67,.24,1.41,.31,2.32,.06,.73-.18,1.34-.55,1.83-1.04,.49-.49,.98-1.16,1.41-2.14l.24,.98c-.43,.86-.98,1.53-1.59,2.02s-1.34,.86-2.26,1.1c-1.22,.37-2.32,.43-3.42,.18-1.1-.24-2.02-.73-2.75-1.47-.73-.79-1.28-1.65-1.59-2.69-.31-1.1-.31-2.2,0-3.3s.86-2.08,1.65-2.87c.79-.79,1.77-1.34,2.81-1.65,.79-.24,1.71-.31,2.69-.18,.55,.06,.92,.06,1.04,0,.18-.06,.31-.18,.43-.31,.12-.18,.12-.43,.06-.67l.37-.12h0Z" style="fill: #cb9b52;"/>
          <path d="M79.56,2.55l6.11-.49v.31h-.18c-.55,.06-.98,.18-1.1,.43-.18,.24-.24,.61-.18,1.22l.31,3.48c.79-.06,1.34-.12,1.59-.18,.24-.06,.43-.24,.61-.55s.37-.79,.49-1.59c.18-.92,.31-1.59,.49-2.02,.18-.43,.43-.86,.79-1.1,.37-.31,.79-.43,1.34-.49s1.04,.06,1.34,.37c.37,.31,.55,.67,.61,1.1,0,.37-.06,.67-.24,.86-.18,.24-.49,.37-.79,.37-.67,.06-1.04-.31-1.16-1.04-.06-.37-.18-.55-.43-.55s-.49,.18-.61,.49c-.18,.31-.31,.86-.49,1.65-.12,.73-.31,1.34-.43,1.71-.12,.37-.31,.73-.55,.98,.37,.06,.67,.18,.86,.31,.18,.12,.43,.31,.61,.55s.55,.79,1.16,1.71l1.34,2.02c.18,.31,.43,.49,.73,.67,.24,.12,.61,.18,.98,.18v.31l-3.91,.31-2.75-4.28c-.31-.49-.55-.79-.67-.86-.12-.12-.43-.12-.79-.12l.31,3.97c.06,.55,.18,.92,.43,1.04s.67,.18,1.28,.12v.31l-6.11,.49v-.31c.67-.06,1.1-.18,1.28-.43,.18-.18,.24-.61,.24-1.22l-.61-7.82c-.06-.67-.18-1.16-.37-1.34-.18-.24-.55-.31-1.16-.24h-.24l-.12-.31h0Z" style="fill: #cb9b52;"/>
          <path d="M102.78,4.01c.06-.61,0-1.04-.12-1.28s-.49-.37-1.1-.43l-.37-.06v-.31l6.29,.55v.31l-.43-.06c-.55-.06-.92,0-1.1,.24-.18,.18-.31,.61-.37,1.34l-.61,7.7c-.06,.73,0,1.16,.12,1.41,.18,.24,.49,.37,1.04,.37l.43,.06v.31l-6.29-.55v-.31l.37,.06c.55,.06,.92-.06,1.1-.24,.18-.18,.31-.67,.37-1.34l.55-6.36-4.64,6.11c-.06,.55,0,.98,.12,1.22s.49,.43,1.1,.49l.43,.06v.31l-6.29-.55v-.31l.37,.06c.55,.06,.92-.06,1.1-.24,.18-.18,.31-.67,.37-1.34l.67-7.7c.06-.67,0-1.16-.12-1.41-.12-.24-.49-.37-1.1-.43l-.37-.06v-.31l6.29,.55v.31l-.43-.06c-.55-.06-.92,.06-1.1,.24s-.31,.67-.37,1.28l-.55,6.42,4.64-6.05h0Z" style="fill: #cb9b52;"/>
          <path d="M116.41,2.97c-1.16-.24-1.96-.61-2.38-1.04s-.61-.86-.49-1.34c.06-.24,.18-.43,.37-.49,.18-.12,.43-.12,.67-.06,.43,.12,.73,.49,.86,1.1,.06,.37,.18,.61,.37,.79s.43,.31,.79,.37c.43,.12,.73,.12,.98,0,.24-.06,.49-.31,.73-.61,.37-.49,.79-.67,1.22-.61,.24,.06,.43,.18,.55,.37s.18,.43,.12,.67c-.12,.43-.43,.73-1.04,.92-.67,.24-1.59,.18-2.75-.06Zm1.41,3.48c.12-.61,.18-1.04,.06-1.28s-.43-.43-.98-.55l-.37-.06,.06-.31,6.17,1.41-.06,.31-.37-.12c-.55-.12-.92-.12-1.1,.06-.24,.18-.43,.61-.55,1.28l-1.71,7.52c-.18,.73-.18,1.16-.06,1.41,.12,.24,.43,.43,.98,.55l.37,.12-.06,.31-6.17-1.41,.06-.31,.37,.06c.55,.12,.92,.12,1.1-.06,.24-.18,.43-.61,.55-1.28l1.47-6.23-5.5,5.44c-.12,.55-.12,.98-.06,1.22,.06,.24,.43,.49,1.04,.61l.37,.12-.06,.31-6.23-1.53,.06-.31,.37,.06c.55,.12,.92,.12,1.16-.06s.43-.61,.55-1.28l1.71-7.52c.18-.67,.18-1.16,.12-1.41s-.43-.43-1.04-.55l-.37-.06,.06-.31,6.17,1.41-.06,.31-.37-.12c-.49-.12-.92-.06-1.1,.12-.24,.18-.43,.61-.55,1.22l-1.53,6.29,5.5-5.38h0Z" style="fill: #cb9b52;"/>
          <path d="M137.49,11.77l3.61,1.65-.12,.31c-.37-.12-.73-.12-1.1,0s-.86,.49-1.59,1.04l-6.36,5.01c-.98,.79-1.71,1.22-2.2,1.28s-.98,0-1.53-.24-.92-.61-1.1-1.04c-.12-.43-.12-.86,.06-1.22,.12-.31,.37-.55,.67-.61,.31-.12,.61-.06,.92,.06,.31,.12,.43,.31,.55,.49,.06,.18,.06,.49-.06,.92-.12,.49-.06,.79,.24,.92,.37,.18,.86,0,1.53-.55l.31-.24-.61-8.68c-.06-.73-.18-1.22-.31-1.53-.18-.31-.49-.55-.92-.79l.12-.31,5.32,2.44-.12,.31-.18-.12c-.61-.31-.98-.31-1.16,0-.06,.12-.06,.31-.06,.55l.43,6.11,3.85-3.06c.55-.43,.86-.73,.98-.98,.06-.18,.06-.37-.06-.55-.12-.18-.49-.43-1.16-.79l.06-.37h0Z" style="fill: #cb9b52;"/>
          <path d="M143.66,22.41l-2.14,2.93c-.37,.49-.55,.79-.61,.98s0,.37,.06,.55c.06,.18,.24,.43,.55,.61l.31,.24-.18,.24-5.01-3.61,.18-.24,.31,.24c.31,.18,.55,.31,.79,.31,.18,0,.37,0,.55-.12,.12-.06,.37-.37,.73-.86l4.52-6.29c.37-.49,.55-.79,.61-.98s0-.37-.06-.55c-.06-.18-.24-.43-.55-.61l-.31-.24,.18-.24,5.01,3.61-.18,.24-.31-.24c-.31-.18-.55-.31-.79-.31-.18,0-.37,0-.55,.12-.12,.06-.37,.37-.73,.86l-1.96,2.69,3.36,2.44,1.96-2.69c.37-.49,.55-.79,.61-.98s0-.37-.06-.55c-.12-.18-.24-.43-.55-.61l-.31-.24,.18-.24,4.95,3.61-.18,.24-.31-.24c-.31-.18-.55-.31-.79-.37-.18,0-.37,0-.55,.12-.12,.06-.37,.37-.73,.86l-4.52,6.36c-.37,.49-.55,.79-.61,.98s0,.37,.06,.55c.12,.18,.24,.43,.55,.61l.31,.24-.18,.24-4.95-3.61,.18-.24,.31,.24c.31,.18,.55,.31,.79,.37,.18,0,.37,0,.55-.12,.12-.06,.37-.37,.73-.86l2.14-2.93-3.36-2.51h0Z" style="fill: #cb9b52;"/>
          <path d="M160.96,31.2c.43-.49,.67-.86,.73-1.1,.06-.24-.12-.61-.55-.98l-.31-.24,.24-.24,4.58,4.34-.24,.24-.31-.31c-.37-.37-.73-.55-.98-.49s-.67,.31-1.16,.79l-5.32,5.62c-.49,.55-.73,.92-.73,1.22,0,.24,.18,.61,.55,.98l.31,.31-.24,.24-4.58-4.34,.24-.24,.31,.24c.43,.37,.73,.55,1.04,.49,.24-.06,.67-.31,1.1-.79l4.4-4.64-7.52,1.89c-.37,.43-.61,.73-.67,1.04-.06,.24,.12,.61,.55,1.04l.31,.31-.24,.24-4.58-4.34,.24-.24,.24,.12c.43,.37,.73,.55,1.04,.49s.67-.31,1.16-.79l5.32-5.62c.49-.49,.73-.92,.79-1.16,.06-.24-.18-.61-.61-.98l-.31-.24,.24-.24,4.58,4.34-.24,.24-.31-.31c-.37-.37-.73-.55-1.04-.49-.31,.06-.67,.31-1.1,.79l-4.4,4.71,7.46-1.89h0Z" style="fill: #cb9b52;"/>
          <path d="M167.31,44.22c.49,1.04,.73,1.83,.73,2.44,0,.86-.37,1.53-.98,2.02-.67,.55-1.47,.73-2.38,.55-1.1-.24-2.14-1.04-3.18-2.32l-3.73-4.71,.24-.18c.31,.43,.61,.67,.79,.79,.18,.06,.37,.12,.55,.06s.49-.24,1.04-.67l5.99-4.71c.49-.37,.79-.67,.86-.86s.12-.37,.06-.55c-.06-.24-.24-.55-.55-.98l.24-.18,3.48,4.4c.86,1.04,1.34,1.89,1.47,2.44,.18,.61,.12,1.16,0,1.71-.18,.55-.49,.98-.92,1.34s-.98,.49-1.59,.43c-.61,0-1.34-.37-2.14-1.04h0Zm-1.77-2.63c.49,.67,.98,1.04,1.34,1.22s.79,.24,1.16,.24c.37-.06,.79-.24,1.22-.55s.67-.67,.79-1.04c.12-.37,.12-.73,.06-1.16-.12-.43-.43-.92-.92-1.59l-3.67,2.87h0Zm-.55,.43l-2.93,2.32-.37,.24c-.24,.18-.37,.43-.43,.61,0,.24,.06,.49,.24,.73,.31,.37,.61,.61,1.04,.79s.79,.24,1.28,.18c.43-.06,.86-.24,1.22-.55,.43-.37,.73-.73,.92-1.22s.18-.92,.06-1.41c-.12-.43-.49-1.04-1.04-1.71h0Z" style="fill: #cb9b52;"/>
          <path d="M176.66,50.09l-4.16,2.38,.12,.18c.37,.67,.86,.98,1.41,1.04s1.28-.12,2.14-.49l.18,.31-5.38,3.06-.18-.31c.55-.37,.98-.79,1.22-1.22s.37-.79,.37-1.1-.18-.73-.43-1.22l-2.87,1.65c-.55,.31-.92,.55-.98,.67-.12,.12-.12,.24-.18,.43,0,.18,.06,.43,.24,.67l.37,.61c.55,.98,1.22,1.59,1.96,1.89,.79,.31,1.65,.37,2.75,.06l.18,.31-3.48,1.41-5.01-8.8,.31-.18,.18,.37c.18,.31,.37,.49,.55,.61,.12,.12,.31,.12,.55,.12,.12,0,.49-.18,.98-.43l6.72-3.85c.49-.24,.73-.43,.86-.55,.12-.12,.24-.31,.24-.49,0-.24-.06-.55-.24-.92l-.18-.37,.31-.18,4.89,8.56-2.99,1.71-.18-.31c.67-.55,1.04-1.1,1.22-1.53s.18-.98,.06-1.53c-.06-.31-.31-.86-.79-1.65l-.73-.92h0Z" style="fill: #cb9b52;"/>
          <path d="M177.03,64.32l-3.06,1.16c-.61,.24-.98,.43-1.1,.55-.12,.12-.18,.31-.24,.55,0,.24,.06,.61,.24,1.1l-.31,.12-2.14-5.56,.31-.12c.18,.49,.37,.86,.55,.98s.31,.24,.49,.24,.55-.12,1.16-.31l7.15-2.75c.61-.24,.98-.43,1.1-.55,.12-.12,.18-.31,.24-.55,0-.24-.06-.55-.24-1.1l.31-.12,1.83,4.77c.61,1.59,.73,2.81,.49,3.73-.31,.92-.86,1.53-1.71,1.83-.73,.24-1.41,.31-2.08,.06s-1.28-.73-1.71-1.41c-.37-.49-.79-1.41-1.28-2.63h0Zm5.38-2.08l-4.77,1.83c.06,.18,.12,.31,.12,.43,.24,.67,.67,1.1,1.16,1.28,.55,.18,1.22,.12,2.02-.18s1.34-.73,1.59-1.22,.24-1.1-.06-1.83l-.06-.31h0Z" style="fill: #cb9b52;"/>
          <path d="M188.7,80.95l-3.97,.92-.06-.31c.98-.49,1.65-1.1,2.08-1.96,.43-.79,.49-1.65,.31-2.51-.18-.73-.55-1.34-1.1-1.83s-1.16-.79-1.89-.92c-.92-.18-1.89-.12-2.93,.12-1.04,.24-1.96,.55-2.69,1.04-.79,.43-1.34,.98-1.65,1.65-.31,.67-.37,1.41-.18,2.32,.18,.73,.49,1.34,.92,1.89,.43,.55,1.16,1.04,2.08,1.53l-.98,.24c-.79-.49-1.47-1.04-1.89-1.65-.49-.61-.79-1.41-1.04-2.32-.31-1.22-.31-2.38,0-3.42,.24-1.04,.79-1.96,1.59-2.69,.79-.73,1.71-1.22,2.75-1.47,1.1-.24,2.2-.18,3.3,.12,1.1,.37,2.08,.98,2.81,1.77,.79,.86,1.28,1.83,1.53,2.93,.18,.79,.18,1.71,.06,2.69-.06,.55-.12,.92-.06,1.04,.06,.18,.12,.31,.31,.43s.37,.12,.67,.12l.06,.24h0Z" style="fill: #cb9b52;"/>
          <path d="M187.6,92.8c.61-.06,1.04-.18,1.28-.31,.18-.18,.31-.55,.24-1.1v-.37h.31l.49,6.29h-.31l-.06-.43c-.06-.55-.18-.92-.43-1.04-.24-.18-.67-.18-1.41-.18l-7.7,.61c-.73,.06-1.16,.18-1.34,.37-.18,.18-.24,.55-.24,1.1l.06,.43h-.31l-.49-6.29h.31l.06,.37c.06,.55,.18,.92,.43,1.04,.24,.12,.67,.18,1.41,.12l6.36-.49-6.84-3.61c-.55,.06-.98,.12-1.16,.31-.24,.18-.31,.55-.31,1.16l.06,.43h-.31l-.61-6.29h.31l.06,.37c.06,.55,.18,.92,.43,1.04,.24,.18,.67,.18,1.41,.12l7.7-.61c.73-.06,1.16-.18,1.34-.31,.18-.18,.24-.55,.24-1.16l-.06-.37h.31l.49,6.29h-.31l-.06-.43c-.06-.55-.18-.86-.43-1.04-.24-.18-.67-.18-1.34-.18l-6.42,.55,6.84,3.61h0Z" style="fill: #cb9b52;"/>
          <path d="M188.58,110.58l-3.18-.24v-.31c.73-.12,1.28-.31,1.65-.49s.61-.49,.86-.86c.12-.18,.18-.61,.24-1.16l.06-.86-9.04-.73c-.61-.06-.98-.06-1.16,0s-.31,.18-.43,.37-.18,.43-.24,.79l-.06,.37h-.31l.49-6.11h.31l-.06,.37c0,.37,0,.61,.12,.86,.06,.18,.18,.31,.37,.37,.12,.06,.49,.12,1.1,.18l9.04,.73,.06-.86c.06-.79-.06-1.41-.37-1.77-.43-.55-1.04-.92-1.89-1.1v-.31l3.18,.24-.73,10.51h0Z" style="fill: #cb9b52;"/>
          <path d="M186.44,117.49l-4.64-1.1-.06,.24c-.18,.73-.06,1.28,.31,1.71s.98,.79,1.89,1.1l-.06,.31-5.99-1.41,.06-.31c.67,.06,1.22,.06,1.71-.06,.49-.12,.79-.31,1.04-.55,.18-.24,.37-.67,.49-1.22l-3.24-.73c-.61-.12-1.04-.18-1.16-.18-.18,0-.31,.12-.43,.24s-.24,.37-.31,.67l-.18,.67c-.24,1.1-.18,1.96,.12,2.75,.37,.73,.98,1.41,1.96,1.89l-.06,.31-3.54-1.34,2.26-9.9,.31,.06-.06,.37c-.06,.31-.06,.61,0,.86,.06,.18,.18,.31,.31,.43s.49,.18,1.04,.37l7.52,1.71c.49,.12,.86,.18,.98,.18,.18,0,.37-.06,.55-.18,.18-.18,.37-.43,.43-.86l.06-.37,.31,.06-2.2,9.59-3.42-.79,.06-.31c.86,0,1.53-.06,1.96-.31,.43-.18,.79-.55,1.1-1.1,.18-.31,.37-.86,.55-1.71l.37-1.1h0Z" style="fill: #cb9b52;"/>
          <path d="M180.88,136.49l-2.99-1.16,.12-.31c.73,.06,1.34,.06,1.71,0,.37-.12,.73-.31,1.04-.61,.18-.18,.37-.49,.55-1.04l.31-.79-8.43-3.24c-.55-.24-.92-.31-1.1-.31s-.31,.06-.49,.24c-.18,.12-.31,.37-.43,.67l-.12,.37-.31-.12,2.2-5.74,.31,.12-.12,.37c-.12,.31-.18,.61-.12,.86,0,.18,.12,.31,.24,.49,.12,.12,.43,.24,.98,.49l8.43,3.24,.31-.79c.31-.73,.31-1.34,.12-1.77-.24-.61-.73-1.16-1.53-1.59l.12-.31,2.99,1.16-3.79,9.78h0Z" style="fill: #cb9b52;"/>
        </g>
      </g>
    </g>
  </g>
</svg>